<mxfile host="app.diagrams.net" modified="2024-04-26T17:54:02.347Z" agent="Mozilla/5.0 (Windows NT 10.0; Win64; x64; rv:125.0) Gecko/20100101 Firefox/125.0" etag="RcitU2GKG5YWcgcr-_E8" version="24.3.0" type="device">
  <diagram name="Page-1" id="uJBKbhtnLIJPv9n1ThYT">
    <mxGraphModel dx="666" dy="768" grid="1" gridSize="10" guides="1" tooltips="1" connect="1" arrows="1" fold="1" page="1" pageScale="1" pageWidth="1920" pageHeight="1200" math="0" shadow="0">
      <root>
        <mxCell id="0" />
        <mxCell id="1" parent="0" />
        <mxCell id="cQkxburFolbcZLJk6oDc-413" value="" style="group" parent="1" vertex="1" connectable="0">
          <mxGeometry x="4640" y="10" width="140" height="158" as="geometry" />
        </mxCell>
        <mxCell id="cQkxburFolbcZLJk6oDc-292" value="205" style="text;html=1;align=center;verticalAlign=middle;whiteSpace=wrap;rounded=0;container=0;" parent="cQkxburFolbcZLJk6oDc-413" vertex="1">
          <mxGeometry width="30" height="31" as="geometry" />
        </mxCell>
        <mxCell id="cQkxburFolbcZLJk6oDc-293" value="235" style="text;html=1;align=center;verticalAlign=middle;whiteSpace=wrap;rounded=0;container=0;" parent="cQkxburFolbcZLJk6oDc-413" vertex="1">
          <mxGeometry x="110" width="30" height="31" as="geometry" />
        </mxCell>
        <mxCell id="cQkxburFolbcZLJk6oDc-324" value="301" style="text;html=1;align=center;verticalAlign=middle;whiteSpace=wrap;rounded=0;container=0;" parent="cQkxburFolbcZLJk6oDc-413" vertex="1">
          <mxGeometry x="110" y="127" width="30" height="31" as="geometry" />
        </mxCell>
        <mxCell id="cQkxburFolbcZLJk6oDc-325" value="271" style="text;html=1;align=center;verticalAlign=middle;whiteSpace=wrap;rounded=0;container=0;" parent="cQkxburFolbcZLJk6oDc-413" vertex="1">
          <mxGeometry y="127" width="30" height="31" as="geometry" />
        </mxCell>
        <mxCell id="cQkxburFolbcZLJk6oDc-97" value="Identify application vulnerabilities" style="whiteSpace=wrap;html=1;align=center;container=0;" parent="cQkxburFolbcZLJk6oDc-413" vertex="1">
          <mxGeometry y="31" width="140" height="70.73684210526315" as="geometry" />
        </mxCell>
        <mxCell id="cQkxburFolbcZLJk6oDc-98" value="5.2.1" style="whiteSpace=wrap;html=1;align=center;container=0;" parent="cQkxburFolbcZLJk6oDc-413" vertex="1">
          <mxGeometry y="94.15789473684208" width="30" height="32.84210526315789" as="geometry" />
        </mxCell>
        <mxCell id="cQkxburFolbcZLJk6oDc-99" value="Kaushil" style="whiteSpace=wrap;html=1;align=center;container=0;" parent="cQkxburFolbcZLJk6oDc-413" vertex="1">
          <mxGeometry x="30" y="94.15789473684208" width="80" height="32.84210526315789" as="geometry" />
        </mxCell>
        <mxCell id="cQkxburFolbcZLJk6oDc-100" value="30" style="whiteSpace=wrap;html=1;align=center;container=0;" parent="cQkxburFolbcZLJk6oDc-413" vertex="1">
          <mxGeometry x="110" y="94.15789473684208" width="30" height="32.84210526315789" as="geometry" />
        </mxCell>
        <mxCell id="cQkxburFolbcZLJk6oDc-414" value="" style="group" parent="1" vertex="1" connectable="0">
          <mxGeometry x="4240" y="129" width="140" height="158" as="geometry" />
        </mxCell>
        <mxCell id="cQkxburFolbcZLJk6oDc-290" value="200" style="text;html=1;align=center;verticalAlign=middle;whiteSpace=wrap;rounded=0;container=0;" parent="cQkxburFolbcZLJk6oDc-414" vertex="1">
          <mxGeometry width="30" height="31" as="geometry" />
        </mxCell>
        <mxCell id="cQkxburFolbcZLJk6oDc-291" value="203" style="text;html=1;align=center;verticalAlign=middle;whiteSpace=wrap;rounded=0;container=0;" parent="cQkxburFolbcZLJk6oDc-414" vertex="1">
          <mxGeometry x="110" width="30" height="31" as="geometry" />
        </mxCell>
        <mxCell id="cQkxburFolbcZLJk6oDc-326" value="269" style="text;html=1;align=center;verticalAlign=middle;whiteSpace=wrap;rounded=0;container=0;" parent="cQkxburFolbcZLJk6oDc-414" vertex="1">
          <mxGeometry x="110" y="127" width="30" height="31" as="geometry" />
        </mxCell>
        <mxCell id="cQkxburFolbcZLJk6oDc-327" value="266" style="text;html=1;align=center;verticalAlign=middle;whiteSpace=wrap;rounded=0;container=0;" parent="cQkxburFolbcZLJk6oDc-414" vertex="1">
          <mxGeometry y="127" width="30" height="31" as="geometry" />
        </mxCell>
        <mxCell id="cQkxburFolbcZLJk6oDc-107" value="Test Authority Notification functionality" style="whiteSpace=wrap;html=1;align=center;container=0;" parent="cQkxburFolbcZLJk6oDc-414" vertex="1">
          <mxGeometry y="31" width="140" height="70.73684210526315" as="geometry" />
        </mxCell>
        <mxCell id="cQkxburFolbcZLJk6oDc-108" value="5.1.2" style="whiteSpace=wrap;html=1;align=center;container=0;" parent="cQkxburFolbcZLJk6oDc-414" vertex="1">
          <mxGeometry y="94.15789473684208" width="30" height="32.84210526315789" as="geometry" />
        </mxCell>
        <mxCell id="cQkxburFolbcZLJk6oDc-109" value="Avish" style="whiteSpace=wrap;html=1;align=center;container=0;" parent="cQkxburFolbcZLJk6oDc-414" vertex="1">
          <mxGeometry x="30" y="94.15789473684208" width="80" height="32.84210526315789" as="geometry" />
        </mxCell>
        <mxCell id="cQkxburFolbcZLJk6oDc-110" value="3" style="whiteSpace=wrap;html=1;align=center;container=0;" parent="cQkxburFolbcZLJk6oDc-414" vertex="1">
          <mxGeometry x="110" y="94.15789473684208" width="30" height="32.84210526315789" as="geometry" />
        </mxCell>
        <mxCell id="cQkxburFolbcZLJk6oDc-415" value="" style="group" parent="1" vertex="1" connectable="0">
          <mxGeometry x="4840" y="127.5" width="140" height="158" as="geometry" />
        </mxCell>
        <mxCell id="cQkxburFolbcZLJk6oDc-296" value="235" style="text;html=1;align=center;verticalAlign=middle;whiteSpace=wrap;rounded=0;container=0;" parent="cQkxburFolbcZLJk6oDc-415" vertex="1">
          <mxGeometry width="30" height="31" as="geometry" />
        </mxCell>
        <mxCell id="cQkxburFolbcZLJk6oDc-297" value="238" style="text;html=1;align=center;verticalAlign=middle;whiteSpace=wrap;rounded=0;container=0;" parent="cQkxburFolbcZLJk6oDc-415" vertex="1">
          <mxGeometry x="110" width="30" height="31" as="geometry" />
        </mxCell>
        <mxCell id="cQkxburFolbcZLJk6oDc-299" value="304" style="text;html=1;align=center;verticalAlign=middle;whiteSpace=wrap;rounded=0;container=0;" parent="cQkxburFolbcZLJk6oDc-415" vertex="1">
          <mxGeometry x="110" y="127" width="30" height="31" as="geometry" />
        </mxCell>
        <mxCell id="cQkxburFolbcZLJk6oDc-321" value="301" style="text;html=1;align=center;verticalAlign=middle;whiteSpace=wrap;rounded=0;container=0;" parent="cQkxburFolbcZLJk6oDc-415" vertex="1">
          <mxGeometry y="127" width="30" height="31" as="geometry" />
        </mxCell>
        <mxCell id="cQkxburFolbcZLJk6oDc-87" value="Create testing results report" style="whiteSpace=wrap;html=1;align=center;container=0;" parent="cQkxburFolbcZLJk6oDc-415" vertex="1">
          <mxGeometry y="31" width="140" height="70.73684210526315" as="geometry" />
        </mxCell>
        <mxCell id="cQkxburFolbcZLJk6oDc-88" value="5.2.3" style="whiteSpace=wrap;html=1;align=center;container=0;" parent="cQkxburFolbcZLJk6oDc-415" vertex="1">
          <mxGeometry y="94.15789473684208" width="30" height="32.84210526315789" as="geometry" />
        </mxCell>
        <mxCell id="cQkxburFolbcZLJk6oDc-89" value="Avish" style="whiteSpace=wrap;html=1;align=center;container=0;" parent="cQkxburFolbcZLJk6oDc-415" vertex="1">
          <mxGeometry x="30" y="94.15789473684208" width="80" height="32.84210526315789" as="geometry" />
        </mxCell>
        <mxCell id="cQkxburFolbcZLJk6oDc-90" value="3" style="whiteSpace=wrap;html=1;align=center;container=0;" parent="cQkxburFolbcZLJk6oDc-415" vertex="1">
          <mxGeometry x="110" y="94.15789473684208" width="30" height="32.84210526315789" as="geometry" />
        </mxCell>
        <mxCell id="cQkxburFolbcZLJk6oDc-416" value="" style="group" parent="1" vertex="1" connectable="0">
          <mxGeometry x="4640" y="249" width="140" height="158" as="geometry" />
        </mxCell>
        <mxCell id="cQkxburFolbcZLJk6oDc-294" value="205" style="text;html=1;align=center;verticalAlign=middle;whiteSpace=wrap;rounded=0;container=0;" parent="cQkxburFolbcZLJk6oDc-416" vertex="1">
          <mxGeometry width="30" height="31" as="geometry" />
        </mxCell>
        <mxCell id="cQkxburFolbcZLJk6oDc-295" value="208" style="text;html=1;align=center;verticalAlign=middle;whiteSpace=wrap;rounded=0;container=0;" parent="cQkxburFolbcZLJk6oDc-416" vertex="1">
          <mxGeometry x="110" width="30" height="31" as="geometry" />
        </mxCell>
        <mxCell id="cQkxburFolbcZLJk6oDc-322" value="301" style="text;html=1;align=center;verticalAlign=middle;whiteSpace=wrap;rounded=0;container=0;" parent="cQkxburFolbcZLJk6oDc-416" vertex="1">
          <mxGeometry x="110" y="127" width="30" height="31" as="geometry" />
        </mxCell>
        <mxCell id="cQkxburFolbcZLJk6oDc-323" value="298" style="text;html=1;align=center;verticalAlign=middle;whiteSpace=wrap;rounded=0;container=0;" parent="cQkxburFolbcZLJk6oDc-416" vertex="1">
          <mxGeometry y="127" width="30" height="31" as="geometry" />
        </mxCell>
        <mxCell id="cQkxburFolbcZLJk6oDc-92" value="Assess employee cybersecuirty hygiene" style="whiteSpace=wrap;html=1;align=center;container=0;" parent="cQkxburFolbcZLJk6oDc-416" vertex="1">
          <mxGeometry y="31" width="140" height="70.73684210526315" as="geometry" />
        </mxCell>
        <mxCell id="cQkxburFolbcZLJk6oDc-93" value="5.2.2" style="whiteSpace=wrap;html=1;align=center;container=0;" parent="cQkxburFolbcZLJk6oDc-416" vertex="1">
          <mxGeometry y="94.15789473684208" width="30" height="32.84210526315789" as="geometry" />
        </mxCell>
        <mxCell id="cQkxburFolbcZLJk6oDc-94" value="Eben" style="whiteSpace=wrap;html=1;align=center;container=0;" parent="cQkxburFolbcZLJk6oDc-416" vertex="1">
          <mxGeometry x="30" y="94.15789473684208" width="80" height="32.84210526315789" as="geometry" />
        </mxCell>
        <mxCell id="cQkxburFolbcZLJk6oDc-95" value="3" style="whiteSpace=wrap;html=1;align=center;container=0;" parent="cQkxburFolbcZLJk6oDc-416" vertex="1">
          <mxGeometry x="110" y="94.15789473684208" width="30" height="32.84210526315789" as="geometry" />
        </mxCell>
        <mxCell id="cQkxburFolbcZLJk6oDc-417" value="" style="group" parent="1" vertex="1" connectable="0">
          <mxGeometry x="4440" y="129" width="140" height="161" as="geometry" />
        </mxCell>
        <mxCell id="cQkxburFolbcZLJk6oDc-288" value="205" style="text;html=1;align=center;verticalAlign=middle;whiteSpace=wrap;rounded=0;container=0;" parent="cQkxburFolbcZLJk6oDc-417" vertex="1">
          <mxGeometry x="110" width="30" height="31" as="geometry" />
        </mxCell>
        <mxCell id="cQkxburFolbcZLJk6oDc-289" value="203" style="text;html=1;align=center;verticalAlign=middle;whiteSpace=wrap;rounded=0;container=0;" parent="cQkxburFolbcZLJk6oDc-417" vertex="1">
          <mxGeometry width="30" height="31" as="geometry" />
        </mxCell>
        <mxCell id="cQkxburFolbcZLJk6oDc-112" value="Create testing results report" style="whiteSpace=wrap;html=1;align=center;container=0;" parent="cQkxburFolbcZLJk6oDc-417" vertex="1">
          <mxGeometry y="31" width="140" height="70.73684210526315" as="geometry" />
        </mxCell>
        <mxCell id="cQkxburFolbcZLJk6oDc-113" value="5.1.3" style="whiteSpace=wrap;html=1;align=center;container=0;" parent="cQkxburFolbcZLJk6oDc-417" vertex="1">
          <mxGeometry y="94.15789473684208" width="30" height="32.84210526315789" as="geometry" />
        </mxCell>
        <mxCell id="cQkxburFolbcZLJk6oDc-114" value="Blessing" style="whiteSpace=wrap;html=1;align=center;container=0;" parent="cQkxburFolbcZLJk6oDc-417" vertex="1">
          <mxGeometry x="30" y="94.15789473684208" width="80" height="32.84210526315789" as="geometry" />
        </mxCell>
        <mxCell id="cQkxburFolbcZLJk6oDc-115" value="2" style="whiteSpace=wrap;html=1;align=center;container=0;" parent="cQkxburFolbcZLJk6oDc-417" vertex="1">
          <mxGeometry x="110" y="94.15789473684208" width="30" height="32.84210526315789" as="geometry" />
        </mxCell>
        <mxCell id="cQkxburFolbcZLJk6oDc-332" value="271" style="text;html=1;align=center;verticalAlign=middle;whiteSpace=wrap;rounded=0;container=0;" parent="cQkxburFolbcZLJk6oDc-417" vertex="1">
          <mxGeometry x="110" y="130" width="30" height="31" as="geometry" />
        </mxCell>
        <mxCell id="cQkxburFolbcZLJk6oDc-333" value="269" style="text;html=1;align=center;verticalAlign=middle;whiteSpace=wrap;rounded=0;container=0;" parent="cQkxburFolbcZLJk6oDc-417" vertex="1">
          <mxGeometry y="130" width="30" height="31" as="geometry" />
        </mxCell>
        <mxCell id="cQkxburFolbcZLJk6oDc-418" value="" style="group" parent="1" vertex="1" connectable="0">
          <mxGeometry x="4040" y="130" width="140" height="158" as="geometry" />
        </mxCell>
        <mxCell id="cQkxburFolbcZLJk6oDc-286" value="198" style="text;html=1;align=center;verticalAlign=middle;whiteSpace=wrap;rounded=0;container=0;" parent="cQkxburFolbcZLJk6oDc-418" vertex="1">
          <mxGeometry width="30" height="31" as="geometry" />
        </mxCell>
        <mxCell id="cQkxburFolbcZLJk6oDc-287" value="200" style="text;html=1;align=center;verticalAlign=middle;whiteSpace=wrap;rounded=0;container=0;" parent="cQkxburFolbcZLJk6oDc-418" vertex="1">
          <mxGeometry x="110" width="30" height="31" as="geometry" />
        </mxCell>
        <mxCell id="cQkxburFolbcZLJk6oDc-102" value="Test location access functionality" style="whiteSpace=wrap;html=1;align=center;container=0;" parent="cQkxburFolbcZLJk6oDc-418" vertex="1">
          <mxGeometry y="31" width="140" height="70.73684210526315" as="geometry" />
        </mxCell>
        <mxCell id="cQkxburFolbcZLJk6oDc-103" value="5.1.1" style="whiteSpace=wrap;html=1;align=center;container=0;" parent="cQkxburFolbcZLJk6oDc-418" vertex="1">
          <mxGeometry y="94.15789473684208" width="30" height="32.84210526315789" as="geometry" />
        </mxCell>
        <mxCell id="cQkxburFolbcZLJk6oDc-104" value="Kaushil" style="whiteSpace=wrap;html=1;align=center;container=0;" parent="cQkxburFolbcZLJk6oDc-418" vertex="1">
          <mxGeometry x="30" y="94.15789473684208" width="80" height="32.84210526315789" as="geometry" />
        </mxCell>
        <mxCell id="cQkxburFolbcZLJk6oDc-105" value="2" style="whiteSpace=wrap;html=1;align=center;container=0;" parent="cQkxburFolbcZLJk6oDc-418" vertex="1">
          <mxGeometry x="110" y="94.15789473684208" width="30" height="32.84210526315789" as="geometry" />
        </mxCell>
        <mxCell id="cQkxburFolbcZLJk6oDc-340" value="279" style="text;html=1;align=center;verticalAlign=middle;whiteSpace=wrap;rounded=0;container=0;" parent="cQkxburFolbcZLJk6oDc-418" vertex="1">
          <mxGeometry x="110" y="127" width="30" height="31" as="geometry" />
        </mxCell>
        <mxCell id="cQkxburFolbcZLJk6oDc-341" value="277" style="text;html=1;align=center;verticalAlign=middle;whiteSpace=wrap;rounded=0;container=0;" parent="cQkxburFolbcZLJk6oDc-418" vertex="1">
          <mxGeometry y="127" width="30" height="31" as="geometry" />
        </mxCell>
        <mxCell id="cQkxburFolbcZLJk6oDc-419" value="" style="group" parent="1" vertex="1" connectable="0">
          <mxGeometry x="3640" y="129" width="140" height="161" as="geometry" />
        </mxCell>
        <mxCell id="cQkxburFolbcZLJk6oDc-201" value="" style="group" parent="cQkxburFolbcZLJk6oDc-419" vertex="1" connectable="0">
          <mxGeometry y="31" width="140" height="96" as="geometry" />
        </mxCell>
        <mxCell id="cQkxburFolbcZLJk6oDc-202" value="Code reviews" style="whiteSpace=wrap;html=1;align=center;" parent="cQkxburFolbcZLJk6oDc-201" vertex="1">
          <mxGeometry width="140" height="70.73684210526315" as="geometry" />
        </mxCell>
        <mxCell id="cQkxburFolbcZLJk6oDc-203" value="4.1.3" style="whiteSpace=wrap;html=1;align=center;" parent="cQkxburFolbcZLJk6oDc-201" vertex="1">
          <mxGeometry y="63.157894736842096" width="30" height="32.84210526315789" as="geometry" />
        </mxCell>
        <mxCell id="cQkxburFolbcZLJk6oDc-204" value="Kaushil" style="whiteSpace=wrap;html=1;align=center;" parent="cQkxburFolbcZLJk6oDc-201" vertex="1">
          <mxGeometry x="30" y="63.157894736842096" width="80" height="32.84210526315789" as="geometry" />
        </mxCell>
        <mxCell id="cQkxburFolbcZLJk6oDc-205" value="20" style="whiteSpace=wrap;html=1;align=center;" parent="cQkxburFolbcZLJk6oDc-201" vertex="1">
          <mxGeometry x="110" y="63.157894736842096" width="30" height="32.84210526315789" as="geometry" />
        </mxCell>
        <mxCell id="cQkxburFolbcZLJk6oDc-284" value="164" style="text;html=1;align=center;verticalAlign=middle;whiteSpace=wrap;rounded=0;" parent="cQkxburFolbcZLJk6oDc-419" vertex="1">
          <mxGeometry width="30" height="31" as="geometry" />
        </mxCell>
        <mxCell id="cQkxburFolbcZLJk6oDc-285" value="184" style="text;html=1;align=center;verticalAlign=middle;whiteSpace=wrap;rounded=0;" parent="cQkxburFolbcZLJk6oDc-419" vertex="1">
          <mxGeometry x="110" width="30" height="31" as="geometry" />
        </mxCell>
        <mxCell id="cQkxburFolbcZLJk6oDc-351" value="" style="group" parent="cQkxburFolbcZLJk6oDc-419" vertex="1" connectable="0">
          <mxGeometry y="130" width="140" height="31" as="geometry" />
        </mxCell>
        <mxCell id="cQkxburFolbcZLJk6oDc-352" value="263" style="text;html=1;align=center;verticalAlign=middle;whiteSpace=wrap;rounded=0;" parent="cQkxburFolbcZLJk6oDc-351" vertex="1">
          <mxGeometry x="110" width="30" height="31" as="geometry" />
        </mxCell>
        <mxCell id="cQkxburFolbcZLJk6oDc-353" value="243" style="text;html=1;align=center;verticalAlign=middle;whiteSpace=wrap;rounded=0;" parent="cQkxburFolbcZLJk6oDc-351" vertex="1">
          <mxGeometry width="30" height="31" as="geometry" />
        </mxCell>
        <mxCell id="cQkxburFolbcZLJk6oDc-420" value="" style="group" parent="1" vertex="1" connectable="0">
          <mxGeometry x="3840" y="249" width="140" height="161" as="geometry" />
        </mxCell>
        <mxCell id="cQkxburFolbcZLJk6oDc-176" value="" style="group" parent="cQkxburFolbcZLJk6oDc-420" vertex="1" connectable="0">
          <mxGeometry y="31" width="140" height="96" as="geometry" />
        </mxCell>
        <mxCell id="cQkxburFolbcZLJk6oDc-177" value="Error handling" style="whiteSpace=wrap;html=1;align=center;" parent="cQkxburFolbcZLJk6oDc-176" vertex="1">
          <mxGeometry width="140" height="70.73684210526315" as="geometry" />
        </mxCell>
        <mxCell id="cQkxburFolbcZLJk6oDc-178" value="4.2.3" style="whiteSpace=wrap;html=1;align=center;" parent="cQkxburFolbcZLJk6oDc-176" vertex="1">
          <mxGeometry y="63.157894736842096" width="30" height="32.84210526315789" as="geometry" />
        </mxCell>
        <mxCell id="cQkxburFolbcZLJk6oDc-179" value="Kaushil" style="whiteSpace=wrap;html=1;align=center;" parent="cQkxburFolbcZLJk6oDc-176" vertex="1">
          <mxGeometry x="30" y="63.157894736842096" width="80" height="32.84210526315789" as="geometry" />
        </mxCell>
        <mxCell id="cQkxburFolbcZLJk6oDc-180" value="14" style="whiteSpace=wrap;html=1;align=center;" parent="cQkxburFolbcZLJk6oDc-176" vertex="1">
          <mxGeometry x="110" y="63.157894736842096" width="30" height="32.84210526315789" as="geometry" />
        </mxCell>
        <mxCell id="cQkxburFolbcZLJk6oDc-282" value="184" style="text;html=1;align=center;verticalAlign=middle;whiteSpace=wrap;rounded=0;" parent="cQkxburFolbcZLJk6oDc-420" vertex="1">
          <mxGeometry width="30" height="31" as="geometry" />
        </mxCell>
        <mxCell id="cQkxburFolbcZLJk6oDc-283" value="198" style="text;html=1;align=center;verticalAlign=middle;whiteSpace=wrap;rounded=0;" parent="cQkxburFolbcZLJk6oDc-420" vertex="1">
          <mxGeometry x="110" width="30" height="31" as="geometry" />
        </mxCell>
        <mxCell id="cQkxburFolbcZLJk6oDc-348" value="" style="group" parent="cQkxburFolbcZLJk6oDc-420" vertex="1" connectable="0">
          <mxGeometry y="130" width="140" height="31" as="geometry" />
        </mxCell>
        <mxCell id="cQkxburFolbcZLJk6oDc-349" value="277" style="text;html=1;align=center;verticalAlign=middle;whiteSpace=wrap;rounded=0;" parent="cQkxburFolbcZLJk6oDc-348" vertex="1">
          <mxGeometry x="110" width="30" height="31" as="geometry" />
        </mxCell>
        <mxCell id="cQkxburFolbcZLJk6oDc-350" value="263" style="text;html=1;align=center;verticalAlign=middle;whiteSpace=wrap;rounded=0;" parent="cQkxburFolbcZLJk6oDc-348" vertex="1">
          <mxGeometry width="30" height="31" as="geometry" />
        </mxCell>
        <mxCell id="cQkxburFolbcZLJk6oDc-421" value="" style="group" parent="1" vertex="1" connectable="0">
          <mxGeometry x="3840" y="12" width="140" height="161" as="geometry" />
        </mxCell>
        <mxCell id="cQkxburFolbcZLJk6oDc-181" value="" style="group" parent="cQkxburFolbcZLJk6oDc-421" vertex="1" connectable="0">
          <mxGeometry y="31" width="140" height="96" as="geometry" />
        </mxCell>
        <mxCell id="cQkxburFolbcZLJk6oDc-182" value="Usage logging" style="whiteSpace=wrap;html=1;align=center;" parent="cQkxburFolbcZLJk6oDc-181" vertex="1">
          <mxGeometry width="140" height="70.73684210526315" as="geometry" />
        </mxCell>
        <mxCell id="cQkxburFolbcZLJk6oDc-183" value="4.2.2" style="whiteSpace=wrap;html=1;align=center;" parent="cQkxburFolbcZLJk6oDc-181" vertex="1">
          <mxGeometry y="63.157894736842096" width="30" height="32.84210526315789" as="geometry" />
        </mxCell>
        <mxCell id="cQkxburFolbcZLJk6oDc-184" value="Blessing" style="whiteSpace=wrap;html=1;align=center;" parent="cQkxburFolbcZLJk6oDc-181" vertex="1">
          <mxGeometry x="30" y="63.157894736842096" width="80" height="32.84210526315789" as="geometry" />
        </mxCell>
        <mxCell id="cQkxburFolbcZLJk6oDc-185" value="7" style="whiteSpace=wrap;html=1;align=center;" parent="cQkxburFolbcZLJk6oDc-181" vertex="1">
          <mxGeometry x="110" y="63.157894736842096" width="30" height="32.84210526315789" as="geometry" />
        </mxCell>
        <mxCell id="cQkxburFolbcZLJk6oDc-280" value="184" style="text;html=1;align=center;verticalAlign=middle;whiteSpace=wrap;rounded=0;" parent="cQkxburFolbcZLJk6oDc-421" vertex="1">
          <mxGeometry width="30" height="31" as="geometry" />
        </mxCell>
        <mxCell id="cQkxburFolbcZLJk6oDc-281" value="191" style="text;html=1;align=center;verticalAlign=middle;whiteSpace=wrap;rounded=0;" parent="cQkxburFolbcZLJk6oDc-421" vertex="1">
          <mxGeometry x="110" width="30" height="31" as="geometry" />
        </mxCell>
        <mxCell id="cQkxburFolbcZLJk6oDc-345" value="" style="group" parent="cQkxburFolbcZLJk6oDc-421" vertex="1" connectable="0">
          <mxGeometry y="130" width="140" height="31" as="geometry" />
        </mxCell>
        <mxCell id="cQkxburFolbcZLJk6oDc-346" value="277" style="text;html=1;align=center;verticalAlign=middle;whiteSpace=wrap;rounded=0;" parent="cQkxburFolbcZLJk6oDc-345" vertex="1">
          <mxGeometry x="110" width="30" height="31" as="geometry" />
        </mxCell>
        <mxCell id="cQkxburFolbcZLJk6oDc-347" value="270" style="text;html=1;align=center;verticalAlign=middle;whiteSpace=wrap;rounded=0;" parent="cQkxburFolbcZLJk6oDc-345" vertex="1">
          <mxGeometry width="30" height="31" as="geometry" />
        </mxCell>
        <mxCell id="cQkxburFolbcZLJk6oDc-422" value="" style="group" parent="1" vertex="1" connectable="0">
          <mxGeometry x="3440" y="129" width="140" height="162" as="geometry" />
        </mxCell>
        <mxCell id="cQkxburFolbcZLJk6oDc-186" value="" style="group" parent="cQkxburFolbcZLJk6oDc-422" vertex="1" connectable="0">
          <mxGeometry y="31.192546583850927" width="140" height="96" as="geometry" />
        </mxCell>
        <mxCell id="cQkxburFolbcZLJk6oDc-187" value="Multithreading implementation" style="whiteSpace=wrap;html=1;align=center;" parent="cQkxburFolbcZLJk6oDc-186" vertex="1">
          <mxGeometry width="140" height="70.73684210526315" as="geometry" />
        </mxCell>
        <mxCell id="cQkxburFolbcZLJk6oDc-188" value="4.2.1" style="whiteSpace=wrap;html=1;align=center;" parent="cQkxburFolbcZLJk6oDc-186" vertex="1">
          <mxGeometry y="63.15789473684209" width="30" height="32.84210526315789" as="geometry" />
        </mxCell>
        <mxCell id="cQkxburFolbcZLJk6oDc-189" value="Avish" style="whiteSpace=wrap;html=1;align=center;" parent="cQkxburFolbcZLJk6oDc-186" vertex="1">
          <mxGeometry x="30" y="63.15789473684209" width="80" height="32.84210526315789" as="geometry" />
        </mxCell>
        <mxCell id="cQkxburFolbcZLJk6oDc-190" value="14" style="whiteSpace=wrap;html=1;align=center;" parent="cQkxburFolbcZLJk6oDc-186" vertex="1">
          <mxGeometry x="110" y="63.15789473684209" width="30" height="32.84210526315789" as="geometry" />
        </mxCell>
        <mxCell id="cQkxburFolbcZLJk6oDc-278" value="150" style="text;html=1;align=center;verticalAlign=middle;whiteSpace=wrap;rounded=0;" parent="cQkxburFolbcZLJk6oDc-422" vertex="1">
          <mxGeometry width="30" height="31.192546583850927" as="geometry" />
        </mxCell>
        <mxCell id="cQkxburFolbcZLJk6oDc-279" value="164" style="text;html=1;align=center;verticalAlign=middle;whiteSpace=wrap;rounded=0;" parent="cQkxburFolbcZLJk6oDc-422" vertex="1">
          <mxGeometry x="110" width="30" height="31.192546583850927" as="geometry" />
        </mxCell>
        <mxCell id="cQkxburFolbcZLJk6oDc-342" value="" style="group" parent="cQkxburFolbcZLJk6oDc-422" vertex="1" connectable="0">
          <mxGeometry y="130.80745341614906" width="140" height="31.192546583850927" as="geometry" />
        </mxCell>
        <mxCell id="cQkxburFolbcZLJk6oDc-343" value="243" style="text;html=1;align=center;verticalAlign=middle;whiteSpace=wrap;rounded=0;" parent="cQkxburFolbcZLJk6oDc-342" vertex="1">
          <mxGeometry x="110" width="30" height="31.192546583850927" as="geometry" />
        </mxCell>
        <mxCell id="cQkxburFolbcZLJk6oDc-344" value="229" style="text;html=1;align=center;verticalAlign=middle;whiteSpace=wrap;rounded=0;" parent="cQkxburFolbcZLJk6oDc-342" vertex="1">
          <mxGeometry width="30" height="31.192546583850927" as="geometry" />
        </mxCell>
        <mxCell id="cQkxburFolbcZLJk6oDc-423" value="" style="group" parent="1" vertex="1" connectable="0">
          <mxGeometry x="3040" y="130" width="140" height="158" as="geometry" />
        </mxCell>
        <mxCell id="cQkxburFolbcZLJk6oDc-191" value="" style="group" parent="cQkxburFolbcZLJk6oDc-423" vertex="1" connectable="0">
          <mxGeometry y="31" width="140" height="96" as="geometry" />
        </mxCell>
        <mxCell id="cQkxburFolbcZLJk6oDc-192" value="API implementation" style="whiteSpace=wrap;html=1;align=center;" parent="cQkxburFolbcZLJk6oDc-191" vertex="1">
          <mxGeometry width="140" height="70.73684210526315" as="geometry" />
        </mxCell>
        <mxCell id="cQkxburFolbcZLJk6oDc-193" value="4.1.1" style="whiteSpace=wrap;html=1;align=center;" parent="cQkxburFolbcZLJk6oDc-191" vertex="1">
          <mxGeometry y="63.157894736842096" width="30" height="32.84210526315789" as="geometry" />
        </mxCell>
        <mxCell id="cQkxburFolbcZLJk6oDc-194" value="Avish" style="whiteSpace=wrap;html=1;align=center;" parent="cQkxburFolbcZLJk6oDc-191" vertex="1">
          <mxGeometry x="30" y="63.157894736842096" width="80" height="32.84210526315789" as="geometry" />
        </mxCell>
        <mxCell id="cQkxburFolbcZLJk6oDc-195" value="14" style="whiteSpace=wrap;html=1;align=center;" parent="cQkxburFolbcZLJk6oDc-191" vertex="1">
          <mxGeometry x="110" y="63.157894736842096" width="30" height="32.84210526315789" as="geometry" />
        </mxCell>
        <mxCell id="cQkxburFolbcZLJk6oDc-276" value="122" style="text;html=1;align=center;verticalAlign=middle;whiteSpace=wrap;rounded=0;" parent="cQkxburFolbcZLJk6oDc-423" vertex="1">
          <mxGeometry width="30" height="31" as="geometry" />
        </mxCell>
        <mxCell id="cQkxburFolbcZLJk6oDc-277" value="136" style="text;html=1;align=center;verticalAlign=middle;whiteSpace=wrap;rounded=0;" parent="cQkxburFolbcZLJk6oDc-423" vertex="1">
          <mxGeometry x="110" width="30" height="31" as="geometry" />
        </mxCell>
        <mxCell id="cQkxburFolbcZLJk6oDc-336" value="" style="group" parent="cQkxburFolbcZLJk6oDc-423" vertex="1" connectable="0">
          <mxGeometry y="127" width="140" height="31" as="geometry" />
        </mxCell>
        <mxCell id="cQkxburFolbcZLJk6oDc-337" value="215" style="text;html=1;align=center;verticalAlign=middle;whiteSpace=wrap;rounded=0;" parent="cQkxburFolbcZLJk6oDc-336" vertex="1">
          <mxGeometry x="110" width="30" height="31" as="geometry" />
        </mxCell>
        <mxCell id="cQkxburFolbcZLJk6oDc-338" value="201" style="text;html=1;align=center;verticalAlign=middle;whiteSpace=wrap;rounded=0;" parent="cQkxburFolbcZLJk6oDc-336" vertex="1">
          <mxGeometry width="30" height="31" as="geometry" />
        </mxCell>
        <mxCell id="cQkxburFolbcZLJk6oDc-424" value="" style="group" parent="1" vertex="1" connectable="0">
          <mxGeometry x="3240" y="130" width="140" height="158" as="geometry" />
        </mxCell>
        <mxCell id="cQkxburFolbcZLJk6oDc-196" value="" style="group" parent="cQkxburFolbcZLJk6oDc-424" vertex="1" connectable="0">
          <mxGeometry y="31" width="140" height="96" as="geometry" />
        </mxCell>
        <mxCell id="cQkxburFolbcZLJk6oDc-197" value="Data manipulation" style="whiteSpace=wrap;html=1;align=center;" parent="cQkxburFolbcZLJk6oDc-196" vertex="1">
          <mxGeometry width="140" height="70.73684210526315" as="geometry" />
        </mxCell>
        <mxCell id="cQkxburFolbcZLJk6oDc-198" value="4.1.2" style="whiteSpace=wrap;html=1;align=center;" parent="cQkxburFolbcZLJk6oDc-196" vertex="1">
          <mxGeometry y="63.157894736842096" width="30" height="32.84210526315789" as="geometry" />
        </mxCell>
        <mxCell id="cQkxburFolbcZLJk6oDc-199" value="Eben" style="whiteSpace=wrap;html=1;align=center;" parent="cQkxburFolbcZLJk6oDc-196" vertex="1">
          <mxGeometry x="30" y="63.157894736842096" width="80" height="32.84210526315789" as="geometry" />
        </mxCell>
        <mxCell id="cQkxburFolbcZLJk6oDc-200" value="14" style="whiteSpace=wrap;html=1;align=center;" parent="cQkxburFolbcZLJk6oDc-196" vertex="1">
          <mxGeometry x="110" y="63.157894736842096" width="30" height="32.84210526315789" as="geometry" />
        </mxCell>
        <mxCell id="cQkxburFolbcZLJk6oDc-274" value="136" style="text;html=1;align=center;verticalAlign=middle;whiteSpace=wrap;rounded=0;" parent="cQkxburFolbcZLJk6oDc-424" vertex="1">
          <mxGeometry width="30" height="31" as="geometry" />
        </mxCell>
        <mxCell id="cQkxburFolbcZLJk6oDc-275" value="150" style="text;html=1;align=center;verticalAlign=middle;whiteSpace=wrap;rounded=0;" parent="cQkxburFolbcZLJk6oDc-424" vertex="1">
          <mxGeometry x="110" width="30" height="31" as="geometry" />
        </mxCell>
        <mxCell id="cQkxburFolbcZLJk6oDc-330" value="" style="group" parent="cQkxburFolbcZLJk6oDc-424" vertex="1" connectable="0">
          <mxGeometry y="127" width="140" height="31" as="geometry" />
        </mxCell>
        <mxCell id="cQkxburFolbcZLJk6oDc-328" value="229" style="text;html=1;align=center;verticalAlign=middle;whiteSpace=wrap;rounded=0;" parent="cQkxburFolbcZLJk6oDc-330" vertex="1">
          <mxGeometry x="110" width="30" height="31" as="geometry" />
        </mxCell>
        <mxCell id="cQkxburFolbcZLJk6oDc-329" value="215" style="text;html=1;align=center;verticalAlign=middle;whiteSpace=wrap;rounded=0;" parent="cQkxburFolbcZLJk6oDc-330" vertex="1">
          <mxGeometry width="30" height="31" as="geometry" />
        </mxCell>
        <mxCell id="cQkxburFolbcZLJk6oDc-425" value="" style="group" parent="1" vertex="1" connectable="0">
          <mxGeometry x="2840" y="130" width="140" height="160" as="geometry" />
        </mxCell>
        <mxCell id="cQkxburFolbcZLJk6oDc-171" value="" style="group" parent="cQkxburFolbcZLJk6oDc-425" vertex="1" connectable="0">
          <mxGeometry y="31" width="140" height="96" as="geometry" />
        </mxCell>
        <mxCell id="cQkxburFolbcZLJk6oDc-172" value="Design&amp;nbsp;&lt;div&gt;button animations&lt;/div&gt;" style="whiteSpace=wrap;html=1;align=center;" parent="cQkxburFolbcZLJk6oDc-171" vertex="1">
          <mxGeometry width="140" height="70.73684210526315" as="geometry" />
        </mxCell>
        <mxCell id="cQkxburFolbcZLJk6oDc-173" value="3.1.3" style="whiteSpace=wrap;html=1;align=center;" parent="cQkxburFolbcZLJk6oDc-171" vertex="1">
          <mxGeometry y="63.157894736842096" width="30" height="32.84210526315789" as="geometry" />
        </mxCell>
        <mxCell id="cQkxburFolbcZLJk6oDc-174" value="Avish" style="whiteSpace=wrap;html=1;align=center;" parent="cQkxburFolbcZLJk6oDc-171" vertex="1">
          <mxGeometry x="30" y="63.157894736842096" width="80" height="32.84210526315789" as="geometry" />
        </mxCell>
        <mxCell id="cQkxburFolbcZLJk6oDc-175" value="7" style="whiteSpace=wrap;html=1;align=center;" parent="cQkxburFolbcZLJk6oDc-171" vertex="1">
          <mxGeometry x="110" y="63.157894736842096" width="30" height="32.84210526315789" as="geometry" />
        </mxCell>
        <mxCell id="cQkxburFolbcZLJk6oDc-272" value="115" style="text;html=1;align=center;verticalAlign=middle;whiteSpace=wrap;rounded=0;" parent="cQkxburFolbcZLJk6oDc-425" vertex="1">
          <mxGeometry width="30" height="31" as="geometry" />
        </mxCell>
        <mxCell id="cQkxburFolbcZLJk6oDc-273" value="122" style="text;html=1;align=center;verticalAlign=middle;whiteSpace=wrap;rounded=0;" parent="cQkxburFolbcZLJk6oDc-425" vertex="1">
          <mxGeometry x="110" width="30" height="31" as="geometry" />
        </mxCell>
        <mxCell id="cQkxburFolbcZLJk6oDc-371" value="" style="group" parent="cQkxburFolbcZLJk6oDc-425" vertex="1" connectable="0">
          <mxGeometry y="129" width="140" height="31" as="geometry" />
        </mxCell>
        <mxCell id="cQkxburFolbcZLJk6oDc-372" value="201" style="text;html=1;align=center;verticalAlign=middle;whiteSpace=wrap;rounded=0;" parent="cQkxburFolbcZLJk6oDc-371" vertex="1">
          <mxGeometry x="110" width="30" height="31" as="geometry" />
        </mxCell>
        <mxCell id="cQkxburFolbcZLJk6oDc-373" value="194" style="text;html=1;align=center;verticalAlign=middle;whiteSpace=wrap;rounded=0;" parent="cQkxburFolbcZLJk6oDc-371" vertex="1">
          <mxGeometry width="30" height="31" as="geometry" />
        </mxCell>
        <mxCell id="cQkxburFolbcZLJk6oDc-426" value="" style="group" parent="1" vertex="1" connectable="0">
          <mxGeometry x="2640" y="250" width="140" height="160" as="geometry" />
        </mxCell>
        <mxCell id="cQkxburFolbcZLJk6oDc-161" value="" style="group" parent="cQkxburFolbcZLJk6oDc-426" vertex="1" connectable="0">
          <mxGeometry y="31" width="140" height="96" as="geometry" />
        </mxCell>
        <mxCell id="cQkxburFolbcZLJk6oDc-162" value="Design button icon" style="whiteSpace=wrap;html=1;align=center;" parent="cQkxburFolbcZLJk6oDc-161" vertex="1">
          <mxGeometry width="140" height="70.73684210526315" as="geometry" />
        </mxCell>
        <mxCell id="cQkxburFolbcZLJk6oDc-163" value="3.1.1" style="whiteSpace=wrap;html=1;align=center;" parent="cQkxburFolbcZLJk6oDc-161" vertex="1">
          <mxGeometry y="63.157894736842096" width="30" height="32.84210526315789" as="geometry" />
        </mxCell>
        <mxCell id="cQkxburFolbcZLJk6oDc-164" value="Blessing" style="whiteSpace=wrap;html=1;align=center;" parent="cQkxburFolbcZLJk6oDc-161" vertex="1">
          <mxGeometry x="30" y="63.157894736842096" width="80" height="32.84210526315789" as="geometry" />
        </mxCell>
        <mxCell id="cQkxburFolbcZLJk6oDc-165" value="1" style="whiteSpace=wrap;html=1;align=center;" parent="cQkxburFolbcZLJk6oDc-161" vertex="1">
          <mxGeometry x="110" y="63.157894736842096" width="30" height="32.84210526315789" as="geometry" />
        </mxCell>
        <mxCell id="cQkxburFolbcZLJk6oDc-270" value="112" style="text;html=1;align=center;verticalAlign=middle;whiteSpace=wrap;rounded=0;" parent="cQkxburFolbcZLJk6oDc-426" vertex="1">
          <mxGeometry width="30" height="31" as="geometry" />
        </mxCell>
        <mxCell id="cQkxburFolbcZLJk6oDc-271" value="113" style="text;html=1;align=center;verticalAlign=middle;whiteSpace=wrap;rounded=0;" parent="cQkxburFolbcZLJk6oDc-426" vertex="1">
          <mxGeometry x="110" width="30" height="31" as="geometry" />
        </mxCell>
        <mxCell id="cQkxburFolbcZLJk6oDc-354" value="" style="group" parent="cQkxburFolbcZLJk6oDc-426" vertex="1" connectable="0">
          <mxGeometry y="129" width="140" height="31" as="geometry" />
        </mxCell>
        <mxCell id="cQkxburFolbcZLJk6oDc-355" value="194" style="text;html=1;align=center;verticalAlign=middle;whiteSpace=wrap;rounded=0;" parent="cQkxburFolbcZLJk6oDc-354" vertex="1">
          <mxGeometry x="110" width="30" height="31" as="geometry" />
        </mxCell>
        <mxCell id="cQkxburFolbcZLJk6oDc-356" value="193" style="text;html=1;align=center;verticalAlign=middle;whiteSpace=wrap;rounded=0;" parent="cQkxburFolbcZLJk6oDc-354" vertex="1">
          <mxGeometry width="30" height="31" as="geometry" />
        </mxCell>
        <mxCell id="cQkxburFolbcZLJk6oDc-427" value="" style="group" parent="1" vertex="1" connectable="0">
          <mxGeometry x="2640" y="10" width="140" height="158" as="geometry" />
        </mxCell>
        <mxCell id="cQkxburFolbcZLJk6oDc-166" value="" style="group" parent="cQkxburFolbcZLJk6oDc-427" vertex="1" connectable="0">
          <mxGeometry y="31" width="140" height="96" as="geometry" />
        </mxCell>
        <mxCell id="cQkxburFolbcZLJk6oDc-167" value="Design button states" style="whiteSpace=wrap;html=1;align=center;" parent="cQkxburFolbcZLJk6oDc-166" vertex="1">
          <mxGeometry width="140" height="70.73684210526315" as="geometry" />
        </mxCell>
        <mxCell id="cQkxburFolbcZLJk6oDc-168" value="3.1.2" style="whiteSpace=wrap;html=1;align=center;" parent="cQkxburFolbcZLJk6oDc-166" vertex="1">
          <mxGeometry y="63.157894736842096" width="30" height="32.84210526315789" as="geometry" />
        </mxCell>
        <mxCell id="cQkxburFolbcZLJk6oDc-169" value="Kaushil" style="whiteSpace=wrap;html=1;align=center;" parent="cQkxburFolbcZLJk6oDc-166" vertex="1">
          <mxGeometry x="30" y="63.157894736842096" width="80" height="32.84210526315789" as="geometry" />
        </mxCell>
        <mxCell id="cQkxburFolbcZLJk6oDc-170" value="3" style="whiteSpace=wrap;html=1;align=center;" parent="cQkxburFolbcZLJk6oDc-166" vertex="1">
          <mxGeometry x="110" y="63.157894736842096" width="30" height="32.84210526315789" as="geometry" />
        </mxCell>
        <mxCell id="cQkxburFolbcZLJk6oDc-268" value="112" style="text;html=1;align=center;verticalAlign=middle;whiteSpace=wrap;rounded=0;" parent="cQkxburFolbcZLJk6oDc-427" vertex="1">
          <mxGeometry width="30" height="31" as="geometry" />
        </mxCell>
        <mxCell id="cQkxburFolbcZLJk6oDc-269" value="115" style="text;html=1;align=center;verticalAlign=middle;whiteSpace=wrap;rounded=0;" parent="cQkxburFolbcZLJk6oDc-427" vertex="1">
          <mxGeometry x="110" width="30" height="31" as="geometry" />
        </mxCell>
        <mxCell id="cQkxburFolbcZLJk6oDc-357" value="" style="group" parent="cQkxburFolbcZLJk6oDc-427" vertex="1" connectable="0">
          <mxGeometry y="127" width="140" height="31" as="geometry" />
        </mxCell>
        <mxCell id="cQkxburFolbcZLJk6oDc-358" value="194" style="text;html=1;align=center;verticalAlign=middle;whiteSpace=wrap;rounded=0;" parent="cQkxburFolbcZLJk6oDc-357" vertex="1">
          <mxGeometry x="110" width="30" height="31" as="geometry" />
        </mxCell>
        <mxCell id="cQkxburFolbcZLJk6oDc-359" value="191" style="text;html=1;align=center;verticalAlign=middle;whiteSpace=wrap;rounded=0;" parent="cQkxburFolbcZLJk6oDc-357" vertex="1">
          <mxGeometry width="30" height="31" as="geometry" />
        </mxCell>
        <mxCell id="cQkxburFolbcZLJk6oDc-428" value="" style="group" parent="1" vertex="1" connectable="0">
          <mxGeometry x="2440" y="130" width="140" height="158" as="geometry" />
        </mxCell>
        <mxCell id="cQkxburFolbcZLJk6oDc-146" value="" style="group" parent="cQkxburFolbcZLJk6oDc-428" vertex="1" connectable="0">
          <mxGeometry y="31" width="140" height="96" as="geometry" />
        </mxCell>
        <mxCell id="cQkxburFolbcZLJk6oDc-147" value="Create mockup" style="whiteSpace=wrap;html=1;align=center;" parent="cQkxburFolbcZLJk6oDc-146" vertex="1">
          <mxGeometry width="140" height="70.73684210526315" as="geometry" />
        </mxCell>
        <mxCell id="cQkxburFolbcZLJk6oDc-148" value="3.2.3" style="whiteSpace=wrap;html=1;align=center;" parent="cQkxburFolbcZLJk6oDc-146" vertex="1">
          <mxGeometry y="63.157894736842096" width="30" height="32.84210526315789" as="geometry" />
        </mxCell>
        <mxCell id="cQkxburFolbcZLJk6oDc-149" value="Blessing" style="whiteSpace=wrap;html=1;align=center;" parent="cQkxburFolbcZLJk6oDc-146" vertex="1">
          <mxGeometry x="30" y="63.157894736842096" width="80" height="32.84210526315789" as="geometry" />
        </mxCell>
        <mxCell id="cQkxburFolbcZLJk6oDc-150" value="14" style="whiteSpace=wrap;html=1;align=center;" parent="cQkxburFolbcZLJk6oDc-146" vertex="1">
          <mxGeometry x="110" y="63.157894736842096" width="30" height="32.84210526315789" as="geometry" />
        </mxCell>
        <mxCell id="cQkxburFolbcZLJk6oDc-266" value="98" style="text;html=1;align=center;verticalAlign=middle;whiteSpace=wrap;rounded=0;" parent="cQkxburFolbcZLJk6oDc-428" vertex="1">
          <mxGeometry width="30" height="31" as="geometry" />
        </mxCell>
        <mxCell id="cQkxburFolbcZLJk6oDc-267" value="112" style="text;html=1;align=center;verticalAlign=middle;whiteSpace=wrap;rounded=0;" parent="cQkxburFolbcZLJk6oDc-428" vertex="1">
          <mxGeometry x="110" width="30" height="31" as="geometry" />
        </mxCell>
        <mxCell id="cQkxburFolbcZLJk6oDc-360" value="" style="group" parent="cQkxburFolbcZLJk6oDc-428" vertex="1" connectable="0">
          <mxGeometry y="127" width="140" height="31" as="geometry" />
        </mxCell>
        <mxCell id="cQkxburFolbcZLJk6oDc-361" value="191" style="text;html=1;align=center;verticalAlign=middle;whiteSpace=wrap;rounded=0;" parent="cQkxburFolbcZLJk6oDc-360" vertex="1">
          <mxGeometry x="110" width="30" height="31" as="geometry" />
        </mxCell>
        <mxCell id="cQkxburFolbcZLJk6oDc-362" value="177" style="text;html=1;align=center;verticalAlign=middle;whiteSpace=wrap;rounded=0;" parent="cQkxburFolbcZLJk6oDc-360" vertex="1">
          <mxGeometry width="30" height="31" as="geometry" />
        </mxCell>
        <mxCell id="cQkxburFolbcZLJk6oDc-429" value="" style="group" parent="1" vertex="1" connectable="0">
          <mxGeometry x="2240" y="130" width="140" height="158" as="geometry" />
        </mxCell>
        <mxCell id="cQkxburFolbcZLJk6oDc-151" value="" style="group" parent="cQkxburFolbcZLJk6oDc-429" vertex="1" connectable="0">
          <mxGeometry y="31" width="140" height="96" as="geometry" />
        </mxCell>
        <mxCell id="cQkxburFolbcZLJk6oDc-152" value="Create wireframe" style="whiteSpace=wrap;html=1;align=center;" parent="cQkxburFolbcZLJk6oDc-151" vertex="1">
          <mxGeometry width="140" height="70.73684210526315" as="geometry" />
        </mxCell>
        <mxCell id="cQkxburFolbcZLJk6oDc-153" value="3.2.2" style="whiteSpace=wrap;html=1;align=center;" parent="cQkxburFolbcZLJk6oDc-151" vertex="1">
          <mxGeometry y="63.157894736842096" width="30" height="32.84210526315789" as="geometry" />
        </mxCell>
        <mxCell id="cQkxburFolbcZLJk6oDc-154" value="Avish" style="whiteSpace=wrap;html=1;align=center;" parent="cQkxburFolbcZLJk6oDc-151" vertex="1">
          <mxGeometry x="30" y="63.157894736842096" width="80" height="32.84210526315789" as="geometry" />
        </mxCell>
        <mxCell id="cQkxburFolbcZLJk6oDc-155" value="8" style="whiteSpace=wrap;html=1;align=center;" parent="cQkxburFolbcZLJk6oDc-151" vertex="1">
          <mxGeometry x="110" y="63.157894736842096" width="30" height="32.84210526315789" as="geometry" />
        </mxCell>
        <mxCell id="cQkxburFolbcZLJk6oDc-264" value="90" style="text;html=1;align=center;verticalAlign=middle;whiteSpace=wrap;rounded=0;" parent="cQkxburFolbcZLJk6oDc-429" vertex="1">
          <mxGeometry width="30" height="31" as="geometry" />
        </mxCell>
        <mxCell id="cQkxburFolbcZLJk6oDc-265" value="98" style="text;html=1;align=center;verticalAlign=middle;whiteSpace=wrap;rounded=0;" parent="cQkxburFolbcZLJk6oDc-429" vertex="1">
          <mxGeometry x="110" width="30" height="31" as="geometry" />
        </mxCell>
        <mxCell id="cQkxburFolbcZLJk6oDc-365" value="" style="group" parent="cQkxburFolbcZLJk6oDc-429" vertex="1" connectable="0">
          <mxGeometry y="127" width="140" height="31" as="geometry" />
        </mxCell>
        <mxCell id="cQkxburFolbcZLJk6oDc-366" value="177" style="text;html=1;align=center;verticalAlign=middle;whiteSpace=wrap;rounded=0;" parent="cQkxburFolbcZLJk6oDc-365" vertex="1">
          <mxGeometry x="110" width="30" height="31" as="geometry" />
        </mxCell>
        <mxCell id="cQkxburFolbcZLJk6oDc-367" value="169" style="text;html=1;align=center;verticalAlign=middle;whiteSpace=wrap;rounded=0;" parent="cQkxburFolbcZLJk6oDc-365" vertex="1">
          <mxGeometry width="30" height="31" as="geometry" />
        </mxCell>
        <mxCell id="cQkxburFolbcZLJk6oDc-430" value="" style="group" parent="1" vertex="1" connectable="0">
          <mxGeometry x="2040" y="130" width="140" height="158" as="geometry" />
        </mxCell>
        <mxCell id="cQkxburFolbcZLJk6oDc-156" value="" style="group" parent="cQkxburFolbcZLJk6oDc-430" vertex="1" connectable="0">
          <mxGeometry y="31" width="140" height="96" as="geometry" />
        </mxCell>
        <mxCell id="cQkxburFolbcZLJk6oDc-157" value="Create&amp;nbsp;&lt;div&gt;rough sketch&lt;/div&gt;" style="whiteSpace=wrap;html=1;align=center;" parent="cQkxburFolbcZLJk6oDc-156" vertex="1">
          <mxGeometry width="140" height="70.73684210526315" as="geometry" />
        </mxCell>
        <mxCell id="cQkxburFolbcZLJk6oDc-158" value="3.2.1" style="whiteSpace=wrap;html=1;align=center;" parent="cQkxburFolbcZLJk6oDc-156" vertex="1">
          <mxGeometry y="63.157894736842096" width="30" height="32.84210526315789" as="geometry" />
        </mxCell>
        <mxCell id="cQkxburFolbcZLJk6oDc-159" value="Eben" style="whiteSpace=wrap;html=1;align=center;" parent="cQkxburFolbcZLJk6oDc-156" vertex="1">
          <mxGeometry x="30" y="63.157894736842096" width="80" height="32.84210526315789" as="geometry" />
        </mxCell>
        <mxCell id="cQkxburFolbcZLJk6oDc-160" value="4" style="whiteSpace=wrap;html=1;align=center;" parent="cQkxburFolbcZLJk6oDc-156" vertex="1">
          <mxGeometry x="110" y="63.157894736842096" width="30" height="32.84210526315789" as="geometry" />
        </mxCell>
        <mxCell id="cQkxburFolbcZLJk6oDc-262" value="86" style="text;html=1;align=center;verticalAlign=middle;whiteSpace=wrap;rounded=0;" parent="cQkxburFolbcZLJk6oDc-430" vertex="1">
          <mxGeometry width="30" height="31" as="geometry" />
        </mxCell>
        <mxCell id="cQkxburFolbcZLJk6oDc-263" value="90" style="text;html=1;align=center;verticalAlign=middle;whiteSpace=wrap;rounded=0;" parent="cQkxburFolbcZLJk6oDc-430" vertex="1">
          <mxGeometry x="110" width="30" height="31" as="geometry" />
        </mxCell>
        <mxCell id="cQkxburFolbcZLJk6oDc-368" value="" style="group" parent="cQkxburFolbcZLJk6oDc-430" vertex="1" connectable="0">
          <mxGeometry y="127" width="140" height="31" as="geometry" />
        </mxCell>
        <mxCell id="cQkxburFolbcZLJk6oDc-369" value="169" style="text;html=1;align=center;verticalAlign=middle;whiteSpace=wrap;rounded=0;" parent="cQkxburFolbcZLJk6oDc-368" vertex="1">
          <mxGeometry x="110" width="30" height="31" as="geometry" />
        </mxCell>
        <mxCell id="cQkxburFolbcZLJk6oDc-370" value="165" style="text;html=1;align=center;verticalAlign=middle;whiteSpace=wrap;rounded=0;" parent="cQkxburFolbcZLJk6oDc-368" vertex="1">
          <mxGeometry width="30" height="31" as="geometry" />
        </mxCell>
        <mxCell id="cQkxburFolbcZLJk6oDc-431" value="" style="group" parent="1" vertex="1" connectable="0">
          <mxGeometry x="1440" y="110" width="140" height="158" as="geometry" />
        </mxCell>
        <mxCell id="cQkxburFolbcZLJk6oDc-141" value="" style="group" parent="cQkxburFolbcZLJk6oDc-431" vertex="1" connectable="0">
          <mxGeometry y="31" width="140" height="96" as="geometry" />
        </mxCell>
        <mxCell id="cQkxburFolbcZLJk6oDc-142" value="Create report" style="whiteSpace=wrap;html=1;align=center;" parent="cQkxburFolbcZLJk6oDc-141" vertex="1">
          <mxGeometry width="140" height="70.73684210526315" as="geometry" />
        </mxCell>
        <mxCell id="cQkxburFolbcZLJk6oDc-143" value="2.1.3" style="whiteSpace=wrap;html=1;align=center;" parent="cQkxburFolbcZLJk6oDc-141" vertex="1">
          <mxGeometry y="63.157894736842096" width="30" height="32.84210526315789" as="geometry" />
        </mxCell>
        <mxCell id="cQkxburFolbcZLJk6oDc-144" value="Kaushil" style="whiteSpace=wrap;html=1;align=center;" parent="cQkxburFolbcZLJk6oDc-141" vertex="1">
          <mxGeometry x="30" y="63.157894736842096" width="80" height="32.84210526315789" as="geometry" />
        </mxCell>
        <mxCell id="cQkxburFolbcZLJk6oDc-145" value="3" style="whiteSpace=wrap;html=1;align=center;" parent="cQkxburFolbcZLJk6oDc-141" vertex="1">
          <mxGeometry x="110" y="63.157894736842096" width="30" height="32.84210526315789" as="geometry" />
        </mxCell>
        <mxCell id="cQkxburFolbcZLJk6oDc-260" value="66" style="text;html=1;align=center;verticalAlign=middle;whiteSpace=wrap;rounded=0;" parent="cQkxburFolbcZLJk6oDc-431" vertex="1">
          <mxGeometry width="30" height="31" as="geometry" />
        </mxCell>
        <mxCell id="cQkxburFolbcZLJk6oDc-261" value="69" style="text;html=1;align=center;verticalAlign=middle;whiteSpace=wrap;rounded=0;" parent="cQkxburFolbcZLJk6oDc-431" vertex="1">
          <mxGeometry x="110" width="30" height="31" as="geometry" />
        </mxCell>
        <mxCell id="cQkxburFolbcZLJk6oDc-374" value="" style="group" parent="cQkxburFolbcZLJk6oDc-431" vertex="1" connectable="0">
          <mxGeometry y="127" width="140" height="31" as="geometry" />
        </mxCell>
        <mxCell id="cQkxburFolbcZLJk6oDc-375" value="148" style="text;html=1;align=center;verticalAlign=middle;whiteSpace=wrap;rounded=0;" parent="cQkxburFolbcZLJk6oDc-374" vertex="1">
          <mxGeometry x="110" width="30" height="31" as="geometry" />
        </mxCell>
        <mxCell id="cQkxburFolbcZLJk6oDc-376" value="145" style="text;html=1;align=center;verticalAlign=middle;whiteSpace=wrap;rounded=0;" parent="cQkxburFolbcZLJk6oDc-374" vertex="1">
          <mxGeometry width="30" height="31" as="geometry" />
        </mxCell>
        <mxCell id="cQkxburFolbcZLJk6oDc-432" value="" style="group" parent="1" vertex="1" connectable="0">
          <mxGeometry x="1240" y="110" width="140" height="158" as="geometry" />
        </mxCell>
        <mxCell id="cQkxburFolbcZLJk6oDc-317" value="251" style="text;html=1;align=center;verticalAlign=middle;whiteSpace=wrap;rounded=0;" parent="cQkxburFolbcZLJk6oDc-432" vertex="1">
          <mxGeometry x="110" y="106" width="30" height="31" as="geometry" />
        </mxCell>
        <mxCell id="cQkxburFolbcZLJk6oDc-319" value="" style="group" parent="cQkxburFolbcZLJk6oDc-432" vertex="1" connectable="0">
          <mxGeometry width="140" height="158" as="geometry" />
        </mxCell>
        <mxCell id="cQkxburFolbcZLJk6oDc-136" value="" style="group" parent="cQkxburFolbcZLJk6oDc-319" vertex="1" connectable="0">
          <mxGeometry y="31" width="140" height="127" as="geometry" />
        </mxCell>
        <mxCell id="cQkxburFolbcZLJk6oDc-137" value="Research&amp;nbsp;&lt;div&gt;risk reduction&amp;nbsp;&lt;/div&gt;&lt;div&gt;techniques&lt;/div&gt;" style="whiteSpace=wrap;html=1;align=center;" parent="cQkxburFolbcZLJk6oDc-136" vertex="1">
          <mxGeometry width="140" height="70.73684210526315" as="geometry" />
        </mxCell>
        <mxCell id="cQkxburFolbcZLJk6oDc-138" value="2.1.2" style="whiteSpace=wrap;html=1;align=center;" parent="cQkxburFolbcZLJk6oDc-136" vertex="1">
          <mxGeometry y="63.157894736842096" width="30" height="32.84210526315789" as="geometry" />
        </mxCell>
        <mxCell id="cQkxburFolbcZLJk6oDc-139" value="Avish" style="whiteSpace=wrap;html=1;align=center;" parent="cQkxburFolbcZLJk6oDc-136" vertex="1">
          <mxGeometry x="30" y="63.157894736842096" width="80" height="32.84210526315789" as="geometry" />
        </mxCell>
        <mxCell id="cQkxburFolbcZLJk6oDc-140" value="10" style="whiteSpace=wrap;html=1;align=center;" parent="cQkxburFolbcZLJk6oDc-136" vertex="1">
          <mxGeometry x="110" y="63.157894736842096" width="30" height="32.84210526315789" as="geometry" />
        </mxCell>
        <mxCell id="cQkxburFolbcZLJk6oDc-377" value="" style="group" parent="cQkxburFolbcZLJk6oDc-136" vertex="1" connectable="0">
          <mxGeometry y="96" width="140" height="31" as="geometry" />
        </mxCell>
        <mxCell id="cQkxburFolbcZLJk6oDc-378" value="145" style="text;html=1;align=center;verticalAlign=middle;whiteSpace=wrap;rounded=0;" parent="cQkxburFolbcZLJk6oDc-377" vertex="1">
          <mxGeometry x="110" width="30" height="31" as="geometry" />
        </mxCell>
        <mxCell id="cQkxburFolbcZLJk6oDc-379" value="135" style="text;html=1;align=center;verticalAlign=middle;whiteSpace=wrap;rounded=0;" parent="cQkxburFolbcZLJk6oDc-377" vertex="1">
          <mxGeometry width="30" height="31" as="geometry" />
        </mxCell>
        <mxCell id="cQkxburFolbcZLJk6oDc-258" value="56" style="text;html=1;align=center;verticalAlign=middle;whiteSpace=wrap;rounded=0;" parent="cQkxburFolbcZLJk6oDc-319" vertex="1">
          <mxGeometry width="30" height="31" as="geometry" />
        </mxCell>
        <mxCell id="cQkxburFolbcZLJk6oDc-259" value="66" style="text;html=1;align=center;verticalAlign=middle;whiteSpace=wrap;rounded=0;" parent="cQkxburFolbcZLJk6oDc-319" vertex="1">
          <mxGeometry x="110" width="30" height="31" as="geometry" />
        </mxCell>
        <mxCell id="cQkxburFolbcZLJk6oDc-433" value="" style="group" parent="1" vertex="1" connectable="0">
          <mxGeometry x="1840" y="11" width="140" height="162" as="geometry" />
        </mxCell>
        <mxCell id="cQkxburFolbcZLJk6oDc-116" value="" style="group" parent="cQkxburFolbcZLJk6oDc-433" vertex="1" connectable="0">
          <mxGeometry y="31" width="140" height="96" as="geometry" />
        </mxCell>
        <mxCell id="cQkxburFolbcZLJk6oDc-117" value="Test Plan of Action" style="whiteSpace=wrap;html=1;align=center;" parent="cQkxburFolbcZLJk6oDc-116" vertex="1">
          <mxGeometry width="140" height="70.73684210526315" as="geometry" />
        </mxCell>
        <mxCell id="cQkxburFolbcZLJk6oDc-118" value="2.2.3" style="whiteSpace=wrap;html=1;align=center;" parent="cQkxburFolbcZLJk6oDc-116" vertex="1">
          <mxGeometry y="63.157894736842096" width="30" height="32.84210526315789" as="geometry" />
        </mxCell>
        <mxCell id="cQkxburFolbcZLJk6oDc-119" value="Eben" style="whiteSpace=wrap;html=1;align=center;" parent="cQkxburFolbcZLJk6oDc-116" vertex="1">
          <mxGeometry x="30" y="63.157894736842096" width="80" height="32.84210526315789" as="geometry" />
        </mxCell>
        <mxCell id="cQkxburFolbcZLJk6oDc-120" value="7" style="whiteSpace=wrap;html=1;align=center;" parent="cQkxburFolbcZLJk6oDc-116" vertex="1">
          <mxGeometry x="110" y="63.157894736842096" width="30" height="32.84210526315789" as="geometry" />
        </mxCell>
        <mxCell id="cQkxburFolbcZLJk6oDc-256" value="72" style="text;html=1;align=center;verticalAlign=middle;whiteSpace=wrap;rounded=0;" parent="cQkxburFolbcZLJk6oDc-433" vertex="1">
          <mxGeometry width="30" height="31" as="geometry" />
        </mxCell>
        <mxCell id="cQkxburFolbcZLJk6oDc-257" value="79" style="text;html=1;align=center;verticalAlign=middle;whiteSpace=wrap;rounded=0;" parent="cQkxburFolbcZLJk6oDc-433" vertex="1">
          <mxGeometry x="110" width="30" height="31" as="geometry" />
        </mxCell>
        <mxCell id="cQkxburFolbcZLJk6oDc-387" value="" style="group" parent="cQkxburFolbcZLJk6oDc-433" vertex="1" connectable="0">
          <mxGeometry y="131" width="140" height="31" as="geometry" />
        </mxCell>
        <mxCell id="cQkxburFolbcZLJk6oDc-388" value="165" style="text;html=1;align=center;verticalAlign=middle;whiteSpace=wrap;rounded=0;" parent="cQkxburFolbcZLJk6oDc-387" vertex="1">
          <mxGeometry x="110" width="30" height="31" as="geometry" />
        </mxCell>
        <mxCell id="cQkxburFolbcZLJk6oDc-389" value="158" style="text;html=1;align=center;verticalAlign=middle;whiteSpace=wrap;rounded=0;" parent="cQkxburFolbcZLJk6oDc-387" vertex="1">
          <mxGeometry width="30" height="31" as="geometry" />
        </mxCell>
        <mxCell id="cQkxburFolbcZLJk6oDc-434" value="" style="group" parent="1" vertex="1" connectable="0">
          <mxGeometry x="1640" y="110" width="140" height="163" as="geometry" />
        </mxCell>
        <mxCell id="cQkxburFolbcZLJk6oDc-121" value="" style="group" parent="cQkxburFolbcZLJk6oDc-434" vertex="1" connectable="0">
          <mxGeometry y="31.191358024691358" width="140" height="96.5925925925926" as="geometry" />
        </mxCell>
        <mxCell id="cQkxburFolbcZLJk6oDc-122" value="Create Plan of Action" style="whiteSpace=wrap;html=1;align=center;" parent="cQkxburFolbcZLJk6oDc-121" vertex="1">
          <mxGeometry width="140" height="71.17348927875243" as="geometry" />
        </mxCell>
        <mxCell id="cQkxburFolbcZLJk6oDc-123" value="2.2.2" style="whiteSpace=wrap;html=1;align=center;" parent="cQkxburFolbcZLJk6oDc-121" vertex="1">
          <mxGeometry y="63.547758284600384" width="30" height="33.0448343079922" as="geometry" />
        </mxCell>
        <mxCell id="cQkxburFolbcZLJk6oDc-124" value="Kaushil" style="whiteSpace=wrap;html=1;align=center;" parent="cQkxburFolbcZLJk6oDc-121" vertex="1">
          <mxGeometry x="30" y="63.547758284600384" width="80" height="33.0448343079922" as="geometry" />
        </mxCell>
        <mxCell id="cQkxburFolbcZLJk6oDc-125" value="3" style="whiteSpace=wrap;html=1;align=center;" parent="cQkxburFolbcZLJk6oDc-121" vertex="1">
          <mxGeometry x="110" y="63.547758284600384" width="30" height="33.0448343079922" as="geometry" />
        </mxCell>
        <mxCell id="cQkxburFolbcZLJk6oDc-254" value="72" style="text;html=1;align=center;verticalAlign=middle;whiteSpace=wrap;rounded=0;" parent="cQkxburFolbcZLJk6oDc-434" vertex="1">
          <mxGeometry x="110" width="30" height="31.191358024691358" as="geometry" />
        </mxCell>
        <mxCell id="cQkxburFolbcZLJk6oDc-255" value="69" style="text;html=1;align=center;verticalAlign=middle;whiteSpace=wrap;rounded=0;" parent="cQkxburFolbcZLJk6oDc-434" vertex="1">
          <mxGeometry width="30" height="31.191358024691358" as="geometry" />
        </mxCell>
        <mxCell id="cQkxburFolbcZLJk6oDc-384" value="" style="group" parent="cQkxburFolbcZLJk6oDc-434" vertex="1" connectable="0">
          <mxGeometry y="131.80864197530863" width="140" height="31.191358024691358" as="geometry" />
        </mxCell>
        <mxCell id="cQkxburFolbcZLJk6oDc-385" value="151" style="text;html=1;align=center;verticalAlign=middle;whiteSpace=wrap;rounded=0;" parent="cQkxburFolbcZLJk6oDc-384" vertex="1">
          <mxGeometry x="110" width="30" height="31.191358024691358" as="geometry" />
        </mxCell>
        <mxCell id="cQkxburFolbcZLJk6oDc-386" value="148" style="text;html=1;align=center;verticalAlign=middle;whiteSpace=wrap;rounded=0;" parent="cQkxburFolbcZLJk6oDc-384" vertex="1">
          <mxGeometry width="30" height="31.191358024691358" as="geometry" />
        </mxCell>
        <mxCell id="cQkxburFolbcZLJk6oDc-435" value="" style="group" parent="1" vertex="1" connectable="0">
          <mxGeometry x="1840" y="250" width="140" height="162" as="geometry" />
        </mxCell>
        <mxCell id="cQkxburFolbcZLJk6oDc-252" value="72" style="text;html=1;align=center;verticalAlign=middle;whiteSpace=wrap;rounded=0;container=0;" parent="cQkxburFolbcZLJk6oDc-435" vertex="1">
          <mxGeometry width="30" height="31" as="geometry" />
        </mxCell>
        <mxCell id="cQkxburFolbcZLJk6oDc-253" value="86" style="text;html=1;align=center;verticalAlign=middle;whiteSpace=wrap;rounded=0;container=0;" parent="cQkxburFolbcZLJk6oDc-435" vertex="1">
          <mxGeometry x="110" width="30" height="31" as="geometry" />
        </mxCell>
        <mxCell id="cQkxburFolbcZLJk6oDc-127" value="Employee awareness training" style="whiteSpace=wrap;html=1;align=center;container=0;" parent="cQkxburFolbcZLJk6oDc-435" vertex="1">
          <mxGeometry y="31" width="140" height="70.73684210526315" as="geometry" />
        </mxCell>
        <mxCell id="cQkxburFolbcZLJk6oDc-128" value="2.2.1" style="whiteSpace=wrap;html=1;align=center;container=0;" parent="cQkxburFolbcZLJk6oDc-435" vertex="1">
          <mxGeometry y="94.15789473684208" width="30" height="32.84210526315789" as="geometry" />
        </mxCell>
        <mxCell id="cQkxburFolbcZLJk6oDc-129" value="Blessing" style="whiteSpace=wrap;html=1;align=center;container=0;" parent="cQkxburFolbcZLJk6oDc-435" vertex="1">
          <mxGeometry x="30" y="94.15789473684208" width="80" height="32.84210526315789" as="geometry" />
        </mxCell>
        <mxCell id="cQkxburFolbcZLJk6oDc-130" value="14" style="whiteSpace=wrap;html=1;align=center;container=0;" parent="cQkxburFolbcZLJk6oDc-435" vertex="1">
          <mxGeometry x="110" y="94.15789473684208" width="30" height="32.84210526315789" as="geometry" />
        </mxCell>
        <mxCell id="cQkxburFolbcZLJk6oDc-382" value="165" style="text;html=1;align=center;verticalAlign=middle;whiteSpace=wrap;rounded=0;container=0;" parent="cQkxburFolbcZLJk6oDc-435" vertex="1">
          <mxGeometry x="110" y="131" width="30" height="31" as="geometry" />
        </mxCell>
        <mxCell id="cQkxburFolbcZLJk6oDc-383" value="151" style="text;html=1;align=center;verticalAlign=middle;whiteSpace=wrap;rounded=0;container=0;" parent="cQkxburFolbcZLJk6oDc-435" vertex="1">
          <mxGeometry y="131" width="30" height="31" as="geometry" />
        </mxCell>
        <mxCell id="cQkxburFolbcZLJk6oDc-436" value="" style="group" parent="1" vertex="1" connectable="0">
          <mxGeometry x="1040" y="110" width="140" height="163" as="geometry" />
        </mxCell>
        <mxCell id="cQkxburFolbcZLJk6oDc-131" value="" style="group" parent="cQkxburFolbcZLJk6oDc-436" vertex="1" connectable="0">
          <mxGeometry y="31.191358024691358" width="140" height="96.5925925925926" as="geometry" />
        </mxCell>
        <mxCell id="cQkxburFolbcZLJk6oDc-132" value="Evaluate&lt;div&gt;potential risks&lt;/div&gt;" style="whiteSpace=wrap;html=1;align=center;" parent="cQkxburFolbcZLJk6oDc-131" vertex="1">
          <mxGeometry width="140" height="71.17348927875243" as="geometry" />
        </mxCell>
        <mxCell id="cQkxburFolbcZLJk6oDc-133" value="2.1.1" style="whiteSpace=wrap;html=1;align=center;" parent="cQkxburFolbcZLJk6oDc-131" vertex="1">
          <mxGeometry y="63.547758284600384" width="30" height="33.0448343079922" as="geometry" />
        </mxCell>
        <mxCell id="cQkxburFolbcZLJk6oDc-134" value="Eben" style="whiteSpace=wrap;html=1;align=center;" parent="cQkxburFolbcZLJk6oDc-131" vertex="1">
          <mxGeometry x="30" y="63.547758284600384" width="80" height="33.0448343079922" as="geometry" />
        </mxCell>
        <mxCell id="cQkxburFolbcZLJk6oDc-135" value="10" style="whiteSpace=wrap;html=1;align=center;" parent="cQkxburFolbcZLJk6oDc-131" vertex="1">
          <mxGeometry x="110" y="63.547758284600384" width="30" height="33.0448343079922" as="geometry" />
        </mxCell>
        <mxCell id="cQkxburFolbcZLJk6oDc-250" value="46" style="text;html=1;align=center;verticalAlign=middle;whiteSpace=wrap;rounded=0;" parent="cQkxburFolbcZLJk6oDc-436" vertex="1">
          <mxGeometry width="30" height="31.191358024691358" as="geometry" />
        </mxCell>
        <mxCell id="cQkxburFolbcZLJk6oDc-251" value="56" style="text;html=1;align=center;verticalAlign=middle;whiteSpace=wrap;rounded=0;" parent="cQkxburFolbcZLJk6oDc-436" vertex="1">
          <mxGeometry x="110" width="30" height="31.191358024691358" as="geometry" />
        </mxCell>
        <mxCell id="cQkxburFolbcZLJk6oDc-390" value="" style="group" parent="cQkxburFolbcZLJk6oDc-436" vertex="1" connectable="0">
          <mxGeometry y="131.80864197530863" width="140" height="31.191358024691358" as="geometry" />
        </mxCell>
        <mxCell id="cQkxburFolbcZLJk6oDc-391" value="135" style="text;html=1;align=center;verticalAlign=middle;whiteSpace=wrap;rounded=0;" parent="cQkxburFolbcZLJk6oDc-390" vertex="1">
          <mxGeometry x="110" width="30" height="31.191358024691358" as="geometry" />
        </mxCell>
        <mxCell id="cQkxburFolbcZLJk6oDc-392" value="125" style="text;html=1;align=center;verticalAlign=middle;whiteSpace=wrap;rounded=0;" parent="cQkxburFolbcZLJk6oDc-390" vertex="1">
          <mxGeometry width="30" height="31.191358024691358" as="geometry" />
        </mxCell>
        <mxCell id="cQkxburFolbcZLJk6oDc-438" value="" style="group" parent="1" vertex="1" connectable="0">
          <mxGeometry x="640" y="110" width="140" height="163" as="geometry" />
        </mxCell>
        <mxCell id="cQkxburFolbcZLJk6oDc-76" value="" style="group" parent="cQkxburFolbcZLJk6oDc-438" vertex="1" connectable="0">
          <mxGeometry y="31" width="140" height="99" as="geometry" />
        </mxCell>
        <mxCell id="cQkxburFolbcZLJk6oDc-77" value="Define&amp;nbsp;&lt;div&gt;team roles&lt;/div&gt;" style="whiteSpace=wrap;html=1;align=center;" parent="cQkxburFolbcZLJk6oDc-76" vertex="1">
          <mxGeometry width="140" height="72.94736842105264" as="geometry" />
        </mxCell>
        <mxCell id="cQkxburFolbcZLJk6oDc-78" value="1.2.2" style="whiteSpace=wrap;html=1;align=center;" parent="cQkxburFolbcZLJk6oDc-76" vertex="1">
          <mxGeometry y="65.13157894736842" width="30" height="33.86842105263158" as="geometry" />
        </mxCell>
        <mxCell id="cQkxburFolbcZLJk6oDc-79" value="Avish" style="whiteSpace=wrap;html=1;align=center;" parent="cQkxburFolbcZLJk6oDc-76" vertex="1">
          <mxGeometry x="30" y="65.13157894736842" width="80" height="33.86842105263158" as="geometry" />
        </mxCell>
        <mxCell id="cQkxburFolbcZLJk6oDc-80" value="3" style="whiteSpace=wrap;html=1;align=center;" parent="cQkxburFolbcZLJk6oDc-76" vertex="1">
          <mxGeometry x="110" y="65.13157894736842" width="30" height="33.86842105263158" as="geometry" />
        </mxCell>
        <mxCell id="cQkxburFolbcZLJk6oDc-240" value="39" style="text;html=1;align=center;verticalAlign=middle;whiteSpace=wrap;rounded=0;" parent="cQkxburFolbcZLJk6oDc-438" vertex="1">
          <mxGeometry y="1" width="30" height="31" as="geometry" />
        </mxCell>
        <mxCell id="cQkxburFolbcZLJk6oDc-241" value="42" style="text;html=1;align=center;verticalAlign=middle;whiteSpace=wrap;rounded=0;" parent="cQkxburFolbcZLJk6oDc-438" vertex="1">
          <mxGeometry x="110" width="30" height="31" as="geometry" />
        </mxCell>
        <mxCell id="cQkxburFolbcZLJk6oDc-397" value="" style="group" parent="cQkxburFolbcZLJk6oDc-438" vertex="1" connectable="0">
          <mxGeometry y="132" width="140" height="31" as="geometry" />
        </mxCell>
        <mxCell id="cQkxburFolbcZLJk6oDc-398" value="121" style="text;html=1;align=center;verticalAlign=middle;whiteSpace=wrap;rounded=0;" parent="cQkxburFolbcZLJk6oDc-397" vertex="1">
          <mxGeometry x="110" width="30" height="31" as="geometry" />
        </mxCell>
        <mxCell id="cQkxburFolbcZLJk6oDc-399" value="118" style="text;html=1;align=center;verticalAlign=middle;whiteSpace=wrap;rounded=0;" parent="cQkxburFolbcZLJk6oDc-397" vertex="1">
          <mxGeometry width="30" height="31" as="geometry" />
        </mxCell>
        <mxCell id="cQkxburFolbcZLJk6oDc-440" value="" style="group" parent="1" vertex="1" connectable="0">
          <mxGeometry x="30" y="130" width="140" height="163" as="geometry" />
        </mxCell>
        <mxCell id="cQkxburFolbcZLJk6oDc-51" value="" style="group" parent="cQkxburFolbcZLJk6oDc-440" vertex="1" connectable="0">
          <mxGeometry y="31" width="140" height="100" as="geometry" />
        </mxCell>
        <mxCell id="cQkxburFolbcZLJk6oDc-52" value="&lt;div&gt;Research&amp;nbsp;&lt;/div&gt;&lt;div&gt;project viability&lt;/div&gt;" style="whiteSpace=wrap;html=1;align=center;" parent="cQkxburFolbcZLJk6oDc-51" vertex="1">
          <mxGeometry width="140" height="73.68421052631578" as="geometry" />
        </mxCell>
        <mxCell id="cQkxburFolbcZLJk6oDc-53" value="1.1.1" style="whiteSpace=wrap;html=1;align=center;" parent="cQkxburFolbcZLJk6oDc-51" vertex="1">
          <mxGeometry y="65.78947368421053" width="30" height="34.21052631578947" as="geometry" />
        </mxCell>
        <mxCell id="cQkxburFolbcZLJk6oDc-54" value="Eben" style="whiteSpace=wrap;html=1;align=center;" parent="cQkxburFolbcZLJk6oDc-51" vertex="1">
          <mxGeometry x="30" y="65.78947368421053" width="80" height="34.21052631578947" as="geometry" />
        </mxCell>
        <mxCell id="cQkxburFolbcZLJk6oDc-55" value="4" style="whiteSpace=wrap;html=1;align=center;" parent="cQkxburFolbcZLJk6oDc-51" vertex="1">
          <mxGeometry x="110" y="65.78947368421053" width="30" height="34.21052631578947" as="geometry" />
        </mxCell>
        <mxCell id="cQkxburFolbcZLJk6oDc-244" value="4" style="text;html=1;align=center;verticalAlign=middle;whiteSpace=wrap;rounded=0;" parent="cQkxburFolbcZLJk6oDc-440" vertex="1">
          <mxGeometry x="110" width="30" height="31" as="geometry" />
        </mxCell>
        <mxCell id="cQkxburFolbcZLJk6oDc-245" value="0" style="text;html=1;align=center;verticalAlign=middle;whiteSpace=wrap;rounded=0;" parent="cQkxburFolbcZLJk6oDc-440" vertex="1">
          <mxGeometry width="30" height="31" as="geometry" />
        </mxCell>
        <mxCell id="cQkxburFolbcZLJk6oDc-403" value="" style="group" parent="cQkxburFolbcZLJk6oDc-440" vertex="1" connectable="0">
          <mxGeometry y="132" width="140" height="31" as="geometry" />
        </mxCell>
        <mxCell id="cQkxburFolbcZLJk6oDc-404" value="83" style="text;html=1;align=center;verticalAlign=middle;whiteSpace=wrap;rounded=0;" parent="cQkxburFolbcZLJk6oDc-403" vertex="1">
          <mxGeometry x="110" width="30" height="31" as="geometry" />
        </mxCell>
        <mxCell id="cQkxburFolbcZLJk6oDc-405" value="79" style="text;html=1;align=center;verticalAlign=middle;whiteSpace=wrap;rounded=0;" parent="cQkxburFolbcZLJk6oDc-403" vertex="1">
          <mxGeometry width="30" height="31" as="geometry" />
        </mxCell>
        <mxCell id="cQkxburFolbcZLJk6oDc-441" value="" style="group" parent="1" vertex="1" connectable="0">
          <mxGeometry x="240" y="10" width="140" height="163" as="geometry" />
        </mxCell>
        <mxCell id="cQkxburFolbcZLJk6oDc-46" value="" style="group" parent="cQkxburFolbcZLJk6oDc-441" vertex="1" connectable="0">
          <mxGeometry y="31" width="140" height="100" as="geometry" />
        </mxCell>
        <mxCell id="cQkxburFolbcZLJk6oDc-47" value="Research&amp;nbsp;&lt;div&gt;hosting costs&lt;/div&gt;" style="whiteSpace=wrap;html=1;align=center;" parent="cQkxburFolbcZLJk6oDc-46" vertex="1">
          <mxGeometry width="140" height="73.68421052631578" as="geometry" />
        </mxCell>
        <mxCell id="cQkxburFolbcZLJk6oDc-48" value="1.1.2" style="whiteSpace=wrap;html=1;align=center;" parent="cQkxburFolbcZLJk6oDc-46" vertex="1">
          <mxGeometry y="65.78947368421052" width="30" height="34.21052631578947" as="geometry" />
        </mxCell>
        <mxCell id="cQkxburFolbcZLJk6oDc-49" value="Kaushil" style="whiteSpace=wrap;html=1;align=center;" parent="cQkxburFolbcZLJk6oDc-46" vertex="1">
          <mxGeometry x="30" y="65.78947368421052" width="80" height="34.21052631578947" as="geometry" />
        </mxCell>
        <mxCell id="cQkxburFolbcZLJk6oDc-50" value="2" style="whiteSpace=wrap;html=1;align=center;" parent="cQkxburFolbcZLJk6oDc-46" vertex="1">
          <mxGeometry x="110" y="65.78947368421052" width="30" height="34.21052631578947" as="geometry" />
        </mxCell>
        <mxCell id="cQkxburFolbcZLJk6oDc-246" value="4" style="text;html=1;align=center;verticalAlign=middle;whiteSpace=wrap;rounded=0;" parent="cQkxburFolbcZLJk6oDc-441" vertex="1">
          <mxGeometry width="30" height="31" as="geometry" />
        </mxCell>
        <mxCell id="cQkxburFolbcZLJk6oDc-247" value="6" style="text;html=1;align=center;verticalAlign=middle;whiteSpace=wrap;rounded=0;" parent="cQkxburFolbcZLJk6oDc-441" vertex="1">
          <mxGeometry x="110" y="1" width="30" height="31" as="geometry" />
        </mxCell>
        <mxCell id="cQkxburFolbcZLJk6oDc-406" value="" style="group" parent="cQkxburFolbcZLJk6oDc-441" vertex="1" connectable="0">
          <mxGeometry y="132" width="140" height="31" as="geometry" />
        </mxCell>
        <mxCell id="cQkxburFolbcZLJk6oDc-407" value="88" style="text;html=1;align=center;verticalAlign=middle;whiteSpace=wrap;rounded=0;" parent="cQkxburFolbcZLJk6oDc-406" vertex="1">
          <mxGeometry x="110" width="30" height="31" as="geometry" />
        </mxCell>
        <mxCell id="cQkxburFolbcZLJk6oDc-408" value="86" style="text;html=1;align=center;verticalAlign=middle;whiteSpace=wrap;rounded=0;" parent="cQkxburFolbcZLJk6oDc-406" vertex="1">
          <mxGeometry width="30" height="31" as="geometry" />
        </mxCell>
        <mxCell id="cQkxburFolbcZLJk6oDc-442" value="" style="group" parent="1" vertex="1" connectable="0">
          <mxGeometry x="240" y="210" width="140" height="163" as="geometry" />
        </mxCell>
        <mxCell id="cQkxburFolbcZLJk6oDc-56" value="" style="group" parent="cQkxburFolbcZLJk6oDc-442" vertex="1" connectable="0">
          <mxGeometry y="31" width="140" height="100" as="geometry" />
        </mxCell>
        <mxCell id="cQkxburFolbcZLJk6oDc-57" value="Gather&amp;nbsp;&lt;div&gt;user requirements&lt;/div&gt;" style="whiteSpace=wrap;html=1;align=center;" parent="cQkxburFolbcZLJk6oDc-56" vertex="1">
          <mxGeometry width="140" height="73.68421052631578" as="geometry" />
        </mxCell>
        <mxCell id="cQkxburFolbcZLJk6oDc-58" value="1.1.3" style="whiteSpace=wrap;html=1;align=center;" parent="cQkxburFolbcZLJk6oDc-56" vertex="1">
          <mxGeometry y="65.78947368421052" width="30" height="34.21052631578947" as="geometry" />
        </mxCell>
        <mxCell id="cQkxburFolbcZLJk6oDc-59" value="Blessing" style="whiteSpace=wrap;html=1;align=center;" parent="cQkxburFolbcZLJk6oDc-56" vertex="1">
          <mxGeometry x="30" y="65.78947368421052" width="80" height="34.21052631578947" as="geometry" />
        </mxCell>
        <mxCell id="cQkxburFolbcZLJk6oDc-60" value="5" style="whiteSpace=wrap;html=1;align=center;" parent="cQkxburFolbcZLJk6oDc-56" vertex="1">
          <mxGeometry x="110" y="65.78947368421052" width="30" height="34.21052631578947" as="geometry" />
        </mxCell>
        <mxCell id="cQkxburFolbcZLJk6oDc-248" value="4" style="text;html=1;align=center;verticalAlign=middle;whiteSpace=wrap;rounded=0;" parent="cQkxburFolbcZLJk6oDc-442" vertex="1">
          <mxGeometry width="30" height="31" as="geometry" />
        </mxCell>
        <mxCell id="cQkxburFolbcZLJk6oDc-249" value="9" style="text;html=1;align=center;verticalAlign=middle;whiteSpace=wrap;rounded=0;" parent="cQkxburFolbcZLJk6oDc-442" vertex="1">
          <mxGeometry x="110" width="30" height="31" as="geometry" />
        </mxCell>
        <mxCell id="cQkxburFolbcZLJk6oDc-410" value="" style="group" parent="cQkxburFolbcZLJk6oDc-442" vertex="1" connectable="0">
          <mxGeometry y="132" width="140" height="31" as="geometry" />
        </mxCell>
        <mxCell id="cQkxburFolbcZLJk6oDc-411" value="88" style="text;html=1;align=center;verticalAlign=middle;whiteSpace=wrap;rounded=0;" parent="cQkxburFolbcZLJk6oDc-410" vertex="1">
          <mxGeometry x="110" width="30" height="31" as="geometry" />
        </mxCell>
        <mxCell id="cQkxburFolbcZLJk6oDc-412" value="83" style="text;html=1;align=center;verticalAlign=middle;whiteSpace=wrap;rounded=0;" parent="cQkxburFolbcZLJk6oDc-410" vertex="1">
          <mxGeometry width="30" height="31" as="geometry" />
        </mxCell>
        <mxCell id="cQkxburFolbcZLJk6oDc-451" value="" style="group" parent="1" vertex="1" connectable="0">
          <mxGeometry x="100" y="450" width="360" height="210" as="geometry" />
        </mxCell>
        <mxCell id="cQkxburFolbcZLJk6oDc-207" value="" style="group" parent="cQkxburFolbcZLJk6oDc-451" vertex="1" connectable="0">
          <mxGeometry x="120" y="30" width="140" height="96" as="geometry" />
        </mxCell>
        <mxCell id="cQkxburFolbcZLJk6oDc-208" value="Activity Description" style="whiteSpace=wrap;html=1;align=center;" parent="cQkxburFolbcZLJk6oDc-207" vertex="1">
          <mxGeometry y="-10" width="140" height="80.74" as="geometry" />
        </mxCell>
        <mxCell id="cQkxburFolbcZLJk6oDc-209" value="" style="whiteSpace=wrap;html=1;align=center;" parent="cQkxburFolbcZLJk6oDc-207" vertex="1">
          <mxGeometry y="63.157894736842096" width="30" height="32.84210526315789" as="geometry" />
        </mxCell>
        <mxCell id="cQkxburFolbcZLJk6oDc-210" value="" style="whiteSpace=wrap;html=1;align=center;" parent="cQkxburFolbcZLJk6oDc-207" vertex="1">
          <mxGeometry x="30" y="63.157894736842096" width="80" height="32.84210526315789" as="geometry" />
        </mxCell>
        <mxCell id="cQkxburFolbcZLJk6oDc-211" value="" style="whiteSpace=wrap;html=1;align=center;" parent="cQkxburFolbcZLJk6oDc-207" vertex="1">
          <mxGeometry x="110" y="63.157894736842096" width="30" height="32.84210526315789" as="geometry" />
        </mxCell>
        <mxCell id="cQkxburFolbcZLJk6oDc-212" value="KEY:" style="text;html=1;align=center;verticalAlign=middle;whiteSpace=wrap;rounded=0;" parent="cQkxburFolbcZLJk6oDc-451" vertex="1">
          <mxGeometry x="10" width="40" height="30" as="geometry" />
        </mxCell>
        <mxCell id="cQkxburFolbcZLJk6oDc-448" style="edgeStyle=orthogonalEdgeStyle;rounded=0;orthogonalLoop=1;jettySize=auto;html=1;" parent="cQkxburFolbcZLJk6oDc-451" source="cQkxburFolbcZLJk6oDc-213" edge="1">
          <mxGeometry relative="1" as="geometry">
            <mxPoint x="109.99999999999977" y="105" as="targetPoint" />
          </mxGeometry>
        </mxCell>
        <mxCell id="cQkxburFolbcZLJk6oDc-213" value="Activity Number" style="text;html=1;align=center;verticalAlign=middle;whiteSpace=wrap;rounded=0;" parent="cQkxburFolbcZLJk6oDc-451" vertex="1">
          <mxGeometry y="90" width="50" height="30" as="geometry" />
        </mxCell>
        <mxCell id="cQkxburFolbcZLJk6oDc-450" style="edgeStyle=orthogonalEdgeStyle;rounded=0;orthogonalLoop=1;jettySize=auto;html=1;" parent="cQkxburFolbcZLJk6oDc-451" source="cQkxburFolbcZLJk6oDc-214" edge="1">
          <mxGeometry relative="1" as="geometry">
            <mxPoint x="189.99999999999977" y="130" as="targetPoint" />
          </mxGeometry>
        </mxCell>
        <mxCell id="cQkxburFolbcZLJk6oDc-214" value="Person Responsible" style="text;html=1;align=center;verticalAlign=middle;whiteSpace=wrap;rounded=0;" parent="cQkxburFolbcZLJk6oDc-451" vertex="1">
          <mxGeometry x="160" y="180" width="60" height="30" as="geometry" />
        </mxCell>
        <mxCell id="cQkxburFolbcZLJk6oDc-449" style="edgeStyle=orthogonalEdgeStyle;rounded=0;orthogonalLoop=1;jettySize=auto;html=1;" parent="cQkxburFolbcZLJk6oDc-451" source="cQkxburFolbcZLJk6oDc-215" edge="1">
          <mxGeometry relative="1" as="geometry">
            <mxPoint x="259.9999999999998" y="110.99999999999955" as="targetPoint" />
          </mxGeometry>
        </mxCell>
        <mxCell id="cQkxburFolbcZLJk6oDc-215" value="Estimated Duration" style="text;html=1;align=center;verticalAlign=middle;whiteSpace=wrap;rounded=0;" parent="cQkxburFolbcZLJk6oDc-451" vertex="1">
          <mxGeometry x="300" y="96" width="60" height="30" as="geometry" />
        </mxCell>
        <mxCell id="cQkxburFolbcZLJk6oDc-443" value="Latest Start" style="text;html=1;align=center;verticalAlign=middle;whiteSpace=wrap;rounded=0;" parent="cQkxburFolbcZLJk6oDc-451" vertex="1">
          <mxGeometry x="118" y="130" width="40" height="22" as="geometry" />
        </mxCell>
        <mxCell id="cQkxburFolbcZLJk6oDc-444" value="Latest Finish" style="text;html=1;align=center;verticalAlign=middle;whiteSpace=wrap;rounded=0;" parent="cQkxburFolbcZLJk6oDc-451" vertex="1">
          <mxGeometry x="221" y="131.5" width="40" height="21.5" as="geometry" />
        </mxCell>
        <mxCell id="cQkxburFolbcZLJk6oDc-445" value="Earliest Start" style="text;html=1;align=center;verticalAlign=middle;whiteSpace=wrap;rounded=0;" parent="cQkxburFolbcZLJk6oDc-451" vertex="1">
          <mxGeometry x="120" y="-10" width="40" height="30" as="geometry" />
        </mxCell>
        <mxCell id="cQkxburFolbcZLJk6oDc-446" value="Earliest Finish" style="text;html=1;align=center;verticalAlign=middle;whiteSpace=wrap;rounded=0;" parent="cQkxburFolbcZLJk6oDc-451" vertex="1">
          <mxGeometry x="209" y="-10" width="50" height="30" as="geometry" />
        </mxCell>
        <mxCell id="GKt9OxKIAQJqH_tLoGr0-1" value="" style="group" parent="1" vertex="1" connectable="0">
          <mxGeometry x="440" y="110" width="160" height="163" as="geometry" />
        </mxCell>
        <mxCell id="cQkxburFolbcZLJk6oDc-71" value="" style="group" parent="GKt9OxKIAQJqH_tLoGr0-1" vertex="1" connectable="0">
          <mxGeometry y="31" width="160" height="99" as="geometry" />
        </mxCell>
        <mxCell id="cQkxburFolbcZLJk6oDc-437" value="" style="group" parent="cQkxburFolbcZLJk6oDc-71" vertex="1" connectable="0">
          <mxGeometry width="140" height="99" as="geometry" />
        </mxCell>
        <mxCell id="cQkxburFolbcZLJk6oDc-72" value="Hire talent" style="whiteSpace=wrap;html=1;align=center;" parent="cQkxburFolbcZLJk6oDc-437" vertex="1">
          <mxGeometry width="140" height="72.94736842105264" as="geometry" />
        </mxCell>
        <mxCell id="cQkxburFolbcZLJk6oDc-73" value="1.2.1" style="whiteSpace=wrap;html=1;align=center;" parent="cQkxburFolbcZLJk6oDc-437" vertex="1">
          <mxGeometry y="65.13157894736842" width="30" height="33.86842105263158" as="geometry" />
        </mxCell>
        <mxCell id="cQkxburFolbcZLJk6oDc-74" value="Blessing" style="whiteSpace=wrap;html=1;align=center;" parent="cQkxburFolbcZLJk6oDc-437" vertex="1">
          <mxGeometry x="30" y="65.13157894736842" width="80" height="33.86842105263158" as="geometry" />
        </mxCell>
        <mxCell id="cQkxburFolbcZLJk6oDc-75" value="30" style="whiteSpace=wrap;html=1;align=center;" parent="cQkxburFolbcZLJk6oDc-437" vertex="1">
          <mxGeometry x="110" y="65.13157894736842" width="30" height="33.86842105263158" as="geometry" />
        </mxCell>
        <mxCell id="cQkxburFolbcZLJk6oDc-238" value="9" style="text;html=1;align=center;verticalAlign=middle;whiteSpace=wrap;rounded=0;" parent="GKt9OxKIAQJqH_tLoGr0-1" vertex="1">
          <mxGeometry y="1" width="30" height="31" as="geometry" />
        </mxCell>
        <mxCell id="cQkxburFolbcZLJk6oDc-239" value="39" style="text;html=1;align=center;verticalAlign=middle;whiteSpace=wrap;rounded=0;" parent="GKt9OxKIAQJqH_tLoGr0-1" vertex="1">
          <mxGeometry x="110" width="30" height="31" as="geometry" />
        </mxCell>
        <mxCell id="cQkxburFolbcZLJk6oDc-394" value="" style="group" parent="GKt9OxKIAQJqH_tLoGr0-1" vertex="1" connectable="0">
          <mxGeometry y="132" width="140" height="31" as="geometry" />
        </mxCell>
        <mxCell id="cQkxburFolbcZLJk6oDc-395" value="118" style="text;html=1;align=center;verticalAlign=middle;whiteSpace=wrap;rounded=0;" parent="cQkxburFolbcZLJk6oDc-394" vertex="1">
          <mxGeometry x="110" width="30" height="31" as="geometry" />
        </mxCell>
        <mxCell id="cQkxburFolbcZLJk6oDc-396" value="88" style="text;html=1;align=center;verticalAlign=middle;whiteSpace=wrap;rounded=0;" parent="cQkxburFolbcZLJk6oDc-394" vertex="1">
          <mxGeometry width="30" height="31" as="geometry" />
        </mxCell>
        <mxCell id="GKt9OxKIAQJqH_tLoGr0-2" value="" style="group" parent="1" vertex="1" connectable="0">
          <mxGeometry x="840" y="110" width="140" height="163" as="geometry" />
        </mxCell>
        <mxCell id="cQkxburFolbcZLJk6oDc-400" value="" style="group" parent="GKt9OxKIAQJqH_tLoGr0-2" vertex="1" connectable="0">
          <mxGeometry y="132" width="140" height="31" as="geometry" />
        </mxCell>
        <mxCell id="cQkxburFolbcZLJk6oDc-401" value="125" style="text;html=1;align=center;verticalAlign=middle;whiteSpace=wrap;rounded=0;" parent="cQkxburFolbcZLJk6oDc-400" vertex="1">
          <mxGeometry x="110" width="30" height="31" as="geometry" />
        </mxCell>
        <mxCell id="cQkxburFolbcZLJk6oDc-402" value="121" style="text;html=1;align=center;verticalAlign=middle;whiteSpace=wrap;rounded=0;" parent="cQkxburFolbcZLJk6oDc-400" vertex="1">
          <mxGeometry width="30" height="31" as="geometry" />
        </mxCell>
        <mxCell id="cQkxburFolbcZLJk6oDc-439" value="" style="group" parent="GKt9OxKIAQJqH_tLoGr0-2" vertex="1" connectable="0">
          <mxGeometry width="140" height="130" as="geometry" />
        </mxCell>
        <mxCell id="cQkxburFolbcZLJk6oDc-81" value="" style="group" parent="cQkxburFolbcZLJk6oDc-439" vertex="1" connectable="0">
          <mxGeometry y="31" width="140" height="99" as="geometry" />
        </mxCell>
        <mxCell id="cQkxburFolbcZLJk6oDc-82" value="Assign&amp;nbsp;&lt;span style=&quot;background-color: initial;&quot;&gt;team responsibilities&lt;/span&gt;" style="whiteSpace=wrap;html=1;align=center;" parent="cQkxburFolbcZLJk6oDc-81" vertex="1">
          <mxGeometry width="140" height="72.94736842105264" as="geometry" />
        </mxCell>
        <mxCell id="cQkxburFolbcZLJk6oDc-83" value="1.2.3" style="whiteSpace=wrap;html=1;align=center;" parent="cQkxburFolbcZLJk6oDc-81" vertex="1">
          <mxGeometry y="65.13157894736842" width="30" height="33.86842105263158" as="geometry" />
        </mxCell>
        <mxCell id="cQkxburFolbcZLJk6oDc-84" value="Eben" style="whiteSpace=wrap;html=1;align=center;" parent="cQkxburFolbcZLJk6oDc-81" vertex="1">
          <mxGeometry x="30" y="65.13157894736842" width="80" height="33.86842105263158" as="geometry" />
        </mxCell>
        <mxCell id="cQkxburFolbcZLJk6oDc-85" value="4" style="whiteSpace=wrap;html=1;align=center;" parent="cQkxburFolbcZLJk6oDc-81" vertex="1">
          <mxGeometry x="110" y="65.13157894736842" width="30" height="33.86842105263158" as="geometry" />
        </mxCell>
        <mxCell id="cQkxburFolbcZLJk6oDc-242" value="42" style="text;html=1;align=center;verticalAlign=middle;whiteSpace=wrap;rounded=0;" parent="cQkxburFolbcZLJk6oDc-439" vertex="1">
          <mxGeometry width="30" height="31" as="geometry" />
        </mxCell>
        <mxCell id="cQkxburFolbcZLJk6oDc-243" value="46" style="text;html=1;align=center;verticalAlign=middle;whiteSpace=wrap;rounded=0;" parent="cQkxburFolbcZLJk6oDc-439" vertex="1">
          <mxGeometry x="110" width="30" height="31" as="geometry" />
        </mxCell>
        <mxCell id="GKt9OxKIAQJqH_tLoGr0-3" style="edgeStyle=orthogonalEdgeStyle;rounded=0;orthogonalLoop=1;jettySize=auto;html=1;entryX=0.007;entryY=0.611;entryDx=0;entryDy=0;entryPerimeter=0;strokeWidth=3;strokeColor=#00a8ee;" parent="1" source="cQkxburFolbcZLJk6oDc-52" target="cQkxburFolbcZLJk6oDc-47" edge="1">
          <mxGeometry relative="1" as="geometry">
            <Array as="points">
              <mxPoint x="200" y="198" />
              <mxPoint x="200" y="86" />
            </Array>
          </mxGeometry>
        </mxCell>
        <mxCell id="GKt9OxKIAQJqH_tLoGr0-5" style="edgeStyle=orthogonalEdgeStyle;rounded=0;orthogonalLoop=1;jettySize=auto;html=1;entryX=0;entryY=0.75;entryDx=0;entryDy=0;strokeWidth=1;strokeColor=#00a8ee;" parent="1" source="cQkxburFolbcZLJk6oDc-57" target="cQkxburFolbcZLJk6oDc-72" edge="1">
          <mxGeometry relative="1" as="geometry" />
        </mxCell>
        <mxCell id="GKt9OxKIAQJqH_tLoGr0-6" style="edgeStyle=orthogonalEdgeStyle;rounded=0;orthogonalLoop=1;jettySize=auto;html=1;entryX=0;entryY=0.5;entryDx=0;entryDy=0;strokeWidth=3;strokeColor=#00a8ee;" parent="1" source="cQkxburFolbcZLJk6oDc-47" target="cQkxburFolbcZLJk6oDc-72" edge="1">
          <mxGeometry relative="1" as="geometry" />
        </mxCell>
        <mxCell id="GKt9OxKIAQJqH_tLoGr0-8" style="edgeStyle=orthogonalEdgeStyle;rounded=0;orthogonalLoop=1;jettySize=auto;html=1;entryX=0;entryY=0.5;entryDx=0;entryDy=0;strokeWidth=3;strokeColor=#00a8ee;" parent="1" source="cQkxburFolbcZLJk6oDc-72" target="cQkxburFolbcZLJk6oDc-77" edge="1">
          <mxGeometry relative="1" as="geometry" />
        </mxCell>
        <mxCell id="GKt9OxKIAQJqH_tLoGr0-11" style="edgeStyle=orthogonalEdgeStyle;rounded=0;orthogonalLoop=1;jettySize=auto;html=1;entryX=0;entryY=0.5;entryDx=0;entryDy=0;strokeWidth=3;strokeColor=#00a8ee;" parent="1" source="cQkxburFolbcZLJk6oDc-77" target="cQkxburFolbcZLJk6oDc-82" edge="1">
          <mxGeometry relative="1" as="geometry" />
        </mxCell>
        <mxCell id="GKt9OxKIAQJqH_tLoGr0-14" style="edgeStyle=orthogonalEdgeStyle;rounded=0;orthogonalLoop=1;jettySize=auto;html=1;entryX=-0.022;entryY=0.499;entryDx=0;entryDy=0;entryPerimeter=0;strokeWidth=3;strokeColor=#29b6f2;" parent="1" source="cQkxburFolbcZLJk6oDc-82" target="cQkxburFolbcZLJk6oDc-132" edge="1">
          <mxGeometry relative="1" as="geometry">
            <Array as="points">
              <mxPoint x="1010" y="177" />
            </Array>
          </mxGeometry>
        </mxCell>
        <mxCell id="GKt9OxKIAQJqH_tLoGr0-15" style="edgeStyle=orthogonalEdgeStyle;rounded=0;orthogonalLoop=1;jettySize=auto;html=1;entryX=0;entryY=0.5;entryDx=0;entryDy=0;strokeWidth=3;strokeColor=#29b6f2;" parent="1" source="cQkxburFolbcZLJk6oDc-132" target="cQkxburFolbcZLJk6oDc-137" edge="1">
          <mxGeometry relative="1" as="geometry" />
        </mxCell>
        <mxCell id="GKt9OxKIAQJqH_tLoGr0-16" style="edgeStyle=orthogonalEdgeStyle;rounded=0;orthogonalLoop=1;jettySize=auto;html=1;entryX=0;entryY=0.5;entryDx=0;entryDy=0;strokeColor=#29b6f1;strokeWidth=3;" parent="1" source="cQkxburFolbcZLJk6oDc-137" target="cQkxburFolbcZLJk6oDc-142" edge="1">
          <mxGeometry relative="1" as="geometry" />
        </mxCell>
        <mxCell id="GKt9OxKIAQJqH_tLoGr0-19" style="edgeStyle=orthogonalEdgeStyle;rounded=0;orthogonalLoop=1;jettySize=auto;html=1;entryX=-0.017;entryY=0.492;entryDx=0;entryDy=0;entryPerimeter=0;strokeWidth=3;strokeColor=#29b6f1;" parent="1" source="cQkxburFolbcZLJk6oDc-142" target="cQkxburFolbcZLJk6oDc-122" edge="1">
          <mxGeometry relative="1" as="geometry" />
        </mxCell>
        <mxCell id="GKt9OxKIAQJqH_tLoGr0-20" style="edgeStyle=orthogonalEdgeStyle;rounded=0;orthogonalLoop=1;jettySize=auto;html=1;entryX=0;entryY=0.5;entryDx=0;entryDy=0;strokeWidth=3;strokeColor=#29b6f1;" parent="1" source="cQkxburFolbcZLJk6oDc-122" target="cQkxburFolbcZLJk6oDc-127" edge="1">
          <mxGeometry relative="1" as="geometry">
            <Array as="points">
              <mxPoint x="1810" y="190" />
              <mxPoint x="1810" y="316" />
            </Array>
          </mxGeometry>
        </mxCell>
        <mxCell id="GKt9OxKIAQJqH_tLoGr0-21" style="edgeStyle=orthogonalEdgeStyle;rounded=0;orthogonalLoop=1;jettySize=auto;html=1;entryX=0;entryY=0.5;entryDx=0;entryDy=0;strokeWidth=1;strokeColor=#29b6f1;" parent="1" source="cQkxburFolbcZLJk6oDc-122" target="cQkxburFolbcZLJk6oDc-117" edge="1">
          <mxGeometry relative="1" as="geometry" />
        </mxCell>
        <mxCell id="GKt9OxKIAQJqH_tLoGr0-24" style="edgeStyle=orthogonalEdgeStyle;rounded=0;orthogonalLoop=1;jettySize=auto;html=1;entryX=0;entryY=0.5;entryDx=0;entryDy=0;strokeWidth=1;strokeColor=#29b6f1;" parent="1" source="cQkxburFolbcZLJk6oDc-117" target="cQkxburFolbcZLJk6oDc-157" edge="1">
          <mxGeometry relative="1" as="geometry" />
        </mxCell>
        <mxCell id="GKt9OxKIAQJqH_tLoGr0-25" style="edgeStyle=orthogonalEdgeStyle;rounded=0;orthogonalLoop=1;jettySize=auto;html=1;entryX=0;entryY=0.75;entryDx=0;entryDy=0;strokeWidth=3;strokeColor=#29b6f1;" parent="1" source="cQkxburFolbcZLJk6oDc-127" target="cQkxburFolbcZLJk6oDc-157" edge="1">
          <mxGeometry relative="1" as="geometry" />
        </mxCell>
        <mxCell id="GKt9OxKIAQJqH_tLoGr0-26" style="edgeStyle=orthogonalEdgeStyle;rounded=0;orthogonalLoop=1;jettySize=auto;html=1;entryX=0;entryY=0.5;entryDx=0;entryDy=0;strokeWidth=3;strokeColor=#29b6f1;" parent="1" source="cQkxburFolbcZLJk6oDc-157" target="cQkxburFolbcZLJk6oDc-152" edge="1">
          <mxGeometry relative="1" as="geometry" />
        </mxCell>
        <mxCell id="GKt9OxKIAQJqH_tLoGr0-27" style="edgeStyle=orthogonalEdgeStyle;rounded=0;orthogonalLoop=1;jettySize=auto;html=1;entryX=0;entryY=0.5;entryDx=0;entryDy=0;strokeWidth=3;strokeColor=#29b5f1;" parent="1" source="cQkxburFolbcZLJk6oDc-152" target="cQkxburFolbcZLJk6oDc-147" edge="1">
          <mxGeometry relative="1" as="geometry" />
        </mxCell>
        <mxCell id="GKt9OxKIAQJqH_tLoGr0-28" style="edgeStyle=orthogonalEdgeStyle;rounded=0;orthogonalLoop=1;jettySize=auto;html=1;entryX=0;entryY=0.5;entryDx=0;entryDy=0;strokeWidth=3;strokeColor=#29b6f2;" parent="1" source="cQkxburFolbcZLJk6oDc-147" target="cQkxburFolbcZLJk6oDc-167" edge="1">
          <mxGeometry relative="1" as="geometry">
            <Array as="points">
              <mxPoint x="2610" y="196" />
              <mxPoint x="2610" y="76" />
            </Array>
          </mxGeometry>
        </mxCell>
        <mxCell id="GKt9OxKIAQJqH_tLoGr0-29" style="edgeStyle=orthogonalEdgeStyle;rounded=0;orthogonalLoop=1;jettySize=auto;html=1;entryX=0;entryY=0.5;entryDx=0;entryDy=0;strokeWidth=1;strokeColor=#29b5f1;" parent="1" source="cQkxburFolbcZLJk6oDc-147" target="cQkxburFolbcZLJk6oDc-162" edge="1">
          <mxGeometry relative="1" as="geometry">
            <Array as="points">
              <mxPoint x="2610" y="210" />
              <mxPoint x="2610" y="316" />
            </Array>
          </mxGeometry>
        </mxCell>
        <mxCell id="GKt9OxKIAQJqH_tLoGr0-30" style="edgeStyle=orthogonalEdgeStyle;rounded=0;orthogonalLoop=1;jettySize=auto;html=1;entryX=0;entryY=0.5;entryDx=0;entryDy=0;strokeWidth=3;strokeColor=#29b6f2;" parent="1" source="cQkxburFolbcZLJk6oDc-167" target="cQkxburFolbcZLJk6oDc-172" edge="1">
          <mxGeometry relative="1" as="geometry" />
        </mxCell>
        <mxCell id="GKt9OxKIAQJqH_tLoGr0-31" style="edgeStyle=orthogonalEdgeStyle;rounded=0;orthogonalLoop=1;jettySize=auto;html=1;entryX=0;entryY=0.75;entryDx=0;entryDy=0;strokeWidth=1;strokeColor=#29b5f1;" parent="1" source="cQkxburFolbcZLJk6oDc-162" target="cQkxburFolbcZLJk6oDc-172" edge="1">
          <mxGeometry relative="1" as="geometry" />
        </mxCell>
        <mxCell id="GKt9OxKIAQJqH_tLoGr0-32" style="edgeStyle=orthogonalEdgeStyle;rounded=0;orthogonalLoop=1;jettySize=auto;html=1;entryX=0;entryY=0.5;entryDx=0;entryDy=0;strokeWidth=3;strokeColor=#29b6f2;" parent="1" source="cQkxburFolbcZLJk6oDc-172" target="cQkxburFolbcZLJk6oDc-192" edge="1">
          <mxGeometry relative="1" as="geometry" />
        </mxCell>
        <mxCell id="GKt9OxKIAQJqH_tLoGr0-33" style="edgeStyle=orthogonalEdgeStyle;rounded=0;orthogonalLoop=1;jettySize=auto;html=1;entryX=0;entryY=0.5;entryDx=0;entryDy=0;strokeWidth=3;strokeColor=#29b5f2;" parent="1" source="cQkxburFolbcZLJk6oDc-192" target="cQkxburFolbcZLJk6oDc-197" edge="1">
          <mxGeometry relative="1" as="geometry" />
        </mxCell>
        <mxCell id="GKt9OxKIAQJqH_tLoGr0-37" style="edgeStyle=orthogonalEdgeStyle;rounded=0;orthogonalLoop=1;jettySize=auto;html=1;entryX=0;entryY=0.5;entryDx=0;entryDy=0;strokeWidth=3;strokeColor=#29b5f2;" parent="1" source="cQkxburFolbcZLJk6oDc-197" target="cQkxburFolbcZLJk6oDc-187" edge="1">
          <mxGeometry relative="1" as="geometry">
            <Array as="points">
              <mxPoint x="3410" y="196" />
            </Array>
          </mxGeometry>
        </mxCell>
        <mxCell id="GKt9OxKIAQJqH_tLoGr0-38" style="edgeStyle=orthogonalEdgeStyle;rounded=0;orthogonalLoop=1;jettySize=auto;html=1;entryX=0;entryY=0.5;entryDx=0;entryDy=0;strokeWidth=3;strokeColor=#29b5f2;" parent="1" source="cQkxburFolbcZLJk6oDc-187" target="cQkxburFolbcZLJk6oDc-202" edge="1">
          <mxGeometry relative="1" as="geometry" />
        </mxCell>
        <mxCell id="GKt9OxKIAQJqH_tLoGr0-39" style="edgeStyle=orthogonalEdgeStyle;rounded=0;orthogonalLoop=1;jettySize=auto;html=1;entryX=0;entryY=0.5;entryDx=0;entryDy=0;strokeWidth=1;strokeColor=#29b5f2;" parent="1" source="cQkxburFolbcZLJk6oDc-202" target="cQkxburFolbcZLJk6oDc-182" edge="1">
          <mxGeometry relative="1" as="geometry" />
        </mxCell>
        <mxCell id="GKt9OxKIAQJqH_tLoGr0-40" style="edgeStyle=orthogonalEdgeStyle;rounded=0;orthogonalLoop=1;jettySize=auto;html=1;entryX=0;entryY=0.5;entryDx=0;entryDy=0;strokeWidth=3;strokeColor=#29b5f2;" parent="1" source="cQkxburFolbcZLJk6oDc-202" target="cQkxburFolbcZLJk6oDc-177" edge="1">
          <mxGeometry relative="1" as="geometry">
            <Array as="points">
              <mxPoint x="3810" y="210" />
              <mxPoint x="3810" y="315" />
            </Array>
          </mxGeometry>
        </mxCell>
        <mxCell id="GKt9OxKIAQJqH_tLoGr0-41" style="edgeStyle=orthogonalEdgeStyle;rounded=0;orthogonalLoop=1;jettySize=auto;html=1;entryX=0.007;entryY=0.42;entryDx=0;entryDy=0;entryPerimeter=0;strokeWidth=1;strokeColor=#29b5f2;" parent="1" source="cQkxburFolbcZLJk6oDc-182" target="cQkxburFolbcZLJk6oDc-102" edge="1">
          <mxGeometry relative="1" as="geometry" />
        </mxCell>
        <mxCell id="GKt9OxKIAQJqH_tLoGr0-42" style="edgeStyle=orthogonalEdgeStyle;rounded=0;orthogonalLoop=1;jettySize=auto;html=1;entryX=0.003;entryY=0.63;entryDx=0;entryDy=0;entryPerimeter=0;strokeWidth=3;strokeColor=#29b5f2;" parent="1" source="cQkxburFolbcZLJk6oDc-177" target="cQkxburFolbcZLJk6oDc-102" edge="1">
          <mxGeometry relative="1" as="geometry" />
        </mxCell>
        <mxCell id="GKt9OxKIAQJqH_tLoGr0-43" style="edgeStyle=orthogonalEdgeStyle;rounded=0;orthogonalLoop=1;jettySize=auto;html=1;entryX=0;entryY=0.5;entryDx=0;entryDy=0;strokeWidth=3;strokeColor=#29b5f2;" parent="1" source="cQkxburFolbcZLJk6oDc-102" target="cQkxburFolbcZLJk6oDc-107" edge="1">
          <mxGeometry relative="1" as="geometry">
            <Array as="points">
              <mxPoint x="4210" y="196" />
            </Array>
          </mxGeometry>
        </mxCell>
        <mxCell id="GKt9OxKIAQJqH_tLoGr0-45" style="edgeStyle=orthogonalEdgeStyle;rounded=0;orthogonalLoop=1;jettySize=auto;html=1;entryX=0;entryY=0.5;entryDx=0;entryDy=0;strokeWidth=3;strokeColor=#29b5f2;" parent="1" source="cQkxburFolbcZLJk6oDc-107" target="cQkxburFolbcZLJk6oDc-112" edge="1">
          <mxGeometry relative="1" as="geometry" />
        </mxCell>
        <mxCell id="GKt9OxKIAQJqH_tLoGr0-46" style="edgeStyle=orthogonalEdgeStyle;rounded=0;orthogonalLoop=1;jettySize=auto;html=1;entryX=0;entryY=0.5;entryDx=0;entryDy=0;strokeWidth=3;strokeColor=#29b5f2;" parent="1" source="cQkxburFolbcZLJk6oDc-112" target="cQkxburFolbcZLJk6oDc-97" edge="1">
          <mxGeometry relative="1" as="geometry" />
        </mxCell>
        <mxCell id="GKt9OxKIAQJqH_tLoGr0-47" style="edgeStyle=orthogonalEdgeStyle;rounded=0;orthogonalLoop=1;jettySize=auto;html=1;entryX=0;entryY=0.5;entryDx=0;entryDy=0;strokeWidth=1;strokeColor=#29b5f2;" parent="1" source="cQkxburFolbcZLJk6oDc-112" target="cQkxburFolbcZLJk6oDc-92" edge="1">
          <mxGeometry relative="1" as="geometry">
            <Array as="points">
              <mxPoint x="4610" y="210" />
              <mxPoint x="4610" y="315" />
            </Array>
          </mxGeometry>
        </mxCell>
        <mxCell id="GKt9OxKIAQJqH_tLoGr0-49" style="edgeStyle=orthogonalEdgeStyle;rounded=0;orthogonalLoop=1;jettySize=auto;html=1;entryX=0;entryY=0.5;entryDx=0;entryDy=0;strokeWidth=3;strokeColor=#29b5f2;" parent="1" source="cQkxburFolbcZLJk6oDc-97" target="cQkxburFolbcZLJk6oDc-87" edge="1">
          <mxGeometry relative="1" as="geometry" />
        </mxCell>
        <mxCell id="GKt9OxKIAQJqH_tLoGr0-50" style="edgeStyle=orthogonalEdgeStyle;rounded=0;orthogonalLoop=1;jettySize=auto;html=1;entryX=-0.007;entryY=0.692;entryDx=0;entryDy=0;entryPerimeter=0;strokeWidth=1;strokeColor=#29b5f2;" parent="1" source="cQkxburFolbcZLJk6oDc-92" target="cQkxburFolbcZLJk6oDc-87" edge="1">
          <mxGeometry relative="1" as="geometry" />
        </mxCell>
        <mxCell id="GKt9OxKIAQJqH_tLoGr0-52" style="edgeStyle=orthogonalEdgeStyle;rounded=0;orthogonalLoop=1;jettySize=auto;html=1;entryX=0;entryY=0.5;entryDx=0;entryDy=0;strokeWidth=1;strokeColor=#00a8ee;" parent="1" source="cQkxburFolbcZLJk6oDc-52" target="cQkxburFolbcZLJk6oDc-57" edge="1">
          <mxGeometry relative="1" as="geometry">
            <Array as="points">
              <mxPoint x="200" y="210" />
              <mxPoint x="200" y="278" />
            </Array>
          </mxGeometry>
        </mxCell>
        <mxCell id="GKt9OxKIAQJqH_tLoGr0-53" value="" style="endArrow=classic;html=1;rounded=0;strokeWidth=3;strokeColor=#00a8ee;" parent="1" edge="1">
          <mxGeometry width="50" height="50" relative="1" as="geometry">
            <mxPoint x="281" y="704" as="sourcePoint" />
            <mxPoint x="371" y="704" as="targetPoint" />
          </mxGeometry>
        </mxCell>
        <mxCell id="GKt9OxKIAQJqH_tLoGr0-54" value="" style="endArrow=classic;html=1;rounded=0;strokeWidth=1;strokeColor=#00a8ee;" parent="1" edge="1">
          <mxGeometry width="50" height="50" relative="1" as="geometry">
            <mxPoint x="281" y="744" as="sourcePoint" />
            <mxPoint x="361" y="744" as="targetPoint" />
          </mxGeometry>
        </mxCell>
        <mxCell id="GKt9OxKIAQJqH_tLoGr0-56" value="Critical Path" style="text;html=1;align=center;verticalAlign=middle;whiteSpace=wrap;rounded=0;" parent="1" vertex="1">
          <mxGeometry x="209" y="690" width="71" height="30" as="geometry" />
        </mxCell>
        <mxCell id="GKt9OxKIAQJqH_tLoGr0-58" value="Least Critical Path" style="text;html=1;align=center;verticalAlign=middle;whiteSpace=wrap;rounded=0;" parent="1" vertex="1">
          <mxGeometry x="180" y="728" width="100" height="30" as="geometry" />
        </mxCell>
        <mxCell id="GKt9OxKIAQJqH_tLoGr0-59" value="Text" style="text;html=1;align=center;verticalAlign=middle;whiteSpace=wrap;rounded=0;fontColor=#ffffff;" parent="1" vertex="1">
          <mxGeometry x="4990" y="180" width="25" height="30" as="geometry" />
        </mxCell>
        <mxCell id="GKt9OxKIAQJqH_tLoGr0-60" value="Text" style="text;html=1;align=center;verticalAlign=middle;whiteSpace=wrap;rounded=0;fontColor=#ffffff;" parent="1" vertex="1">
          <mxGeometry x="240" y="760" width="25" height="30" as="geometry" />
        </mxCell>
      </root>
    </mxGraphModel>
  </diagram>
</mxfile>
